<svg width="1130" height="614" viewBox="0 0 1130 614" fill="none" xmlns="http://www.w3.org/2000/svg">
<path d="M596.2 131.3C596.2 132 596.4 132.6 596.9 133.1C597.4 133.6 598 133.9 598.7 133.9L729.5 134.3C729.8 134.3 730.1 134.2 730.4 134.1C730.7 134 733.1 132.9 735.8 130.5C737.7 128.8 739.6 126.5 740.9 123.3C743.3 117.3 742.7 110.3 739.1 102.4C732.4 87.5999 723.4 77.7999 713.8 71.4999C713 70.7999 712.1 70.0999 710.9 69.6999C683.5 53.7999 652.2 64.0999 651.6 64.2999C598.2 71.9999 596.2 130.6 596.2 131.3ZM732.3 126.8C732.1 127 731.8 127.2 731.6 127.4C731.2 124.6 730.6 120.7 729.3 116C730.3 116.5 731.5 116.9 732.8 117.2C734.5 117.6 735.4 118.2 735.7 119C736.3 120.9 734.1 124.7 732.3 126.8ZM729.6 104.6C729.9 104.2 731.2 101.8 731.8 98.7999C732.7 100.5 733.7 102.3 734.5 104.2C736 107.6 736.9 110.7 737.2 113.6C736.3 113.1 735.2 112.6 733.8 112.3C731.4 111.7 729.8 110.8 729.2 109.4C728.4 107.7 729.3 105.3 729.6 104.6ZM726.7 94.4999C727.9 96.6999 726 100.7 725.2 102.1C725.2 102.2 725 102.5 724.8 102.9C723.2 99.1999 721.3 95.4999 719 91.7999C719.7 91.9999 720.4 92.0999 721.3 92.0999C723.3 92.3999 725.9 92.8999 726.7 94.4999ZM716.2 79.2999C719 81.6999 721.8 84.4999 724.4 87.6999C723.5 87.4999 722.6 87.2999 721.6 87.2999C719.1 87.0999 717.4 86.3999 716.5 85.0999C715.6 83.3999 715.8 80.9999 716.2 79.2999ZM709.1 74.1999C710.5 74.6999 711.3 75.9999 711.7 76.6999C711.4 77.7999 710.9 79.4999 710.8 81.3999C708.6 79.0999 706.2 76.8999 703.5 74.8999C705.8 73.9999 707.7 73.6999 709.1 74.1999ZM701.7 70.2999C700.7 70.6999 699.7 71.1999 698.7 71.8999C694.6 69.4999 689.9 67.3999 684.7 65.9999C690.2 66.5999 696 67.8999 701.7 70.2999ZM660.2 68.2999C661.5 68.1999 662.9 68.1999 664.2 68.1999C688.9 68.1999 707 78.7999 717.9 99.6999C724.2 111.7 726.2 123.9 726.8 129.2L601.4 128.9L609.2 100.8C619.1 80.1999 636.3 69.3999 660.2 68.2999Z" fill="black"/>
<path d="M753.3 129.6C753.3 131 754.4 132.1 755.8 132.1H798.6C800 132.1 801.1 131 801.1 129.6C801.1 128.2 800 127.1 798.6 127.1H755.8C754.4 127.1 753.3 128.2 753.3 129.6Z" fill="black"/>
<path d="M777.7 101.9C777.3 100.6 776 99.8001 774.6 100.1L752.1 106.1C750.8 106.5 750 107.8 750.3 109.2C750.6 110.3 751.6 111.1 752.7 111.1C752.9 111.1 753.1 111.1 753.4 111L775.9 105C777.2 104.7 778 103.3 777.7 101.9Z" fill="black"/>
<path d="M728.6 72.3002C729.1 72.8002 729.7 73.0002 730.4 73.0002C731 73.0002 731.7 72.8002 732.2 72.3002L748.7 55.8002C749.7 54.8002 749.7 53.2002 748.7 52.2002C747.7 51.2002 746.1 51.2002 745.1 52.2002L728.6 68.7002C727.6 69.8002 727.6 71.4002 728.6 72.3002Z" fill="black"/>
<path d="M691.4 51.2002C691.6 51.3002 691.8 51.3002 692.1 51.3002C693.2 51.3002 694.2 50.6002 694.5 49.4002L700.5 26.9002C700.8 25.6002 700.1 24.2002 698.7 23.8002C697.3 23.4002 696 24.2002 695.6 25.6002L689.6 48.1002C689.2 49.4002 690 50.8002 691.4 51.2002Z" fill="black"/>
<path d="M645.5 49.7001C645.8 50.8001 646.8 51.6001 647.9 51.6001C648.1 51.6001 648.3 51.6001 648.6 51.5001C649.9 51.1001 650.7 49.8001 650.4 48.4001L644.4 25.9001C644.1 24.6001 642.7 23.8001 641.3 24.1001C640 24.5001 639.2 25.8001 639.5 27.2001L645.5 49.7001Z" fill="black"/>
<path d="M608.1 73.1C608.6 73.6 609.2 73.8 609.9 73.8C610.5 73.8 611.2 73.6 611.7 73.1C612.7 72.1 612.7 70.5 611.7 69.5L595.2 53C594.2 52 592.6 52 591.6 53C590.6 54 590.6 55.6 591.6 56.6L608.1 73.1Z" fill="black"/>
<path d="M566.2 101.3C564.9 100.9 563.5 101.7 563.1 103.1C562.7 104.4 563.5 105.8 564.9 106.2L587.4 112.2C587.6 112.3 587.8 112.3 588.1 112.3C589.2 112.3 590.2 111.6 590.5 110.4C590.9 109.1 590.1 107.7 588.7 107.3L566.2 101.3Z" fill="black"/>
<path d="M741.4 88.5C741.9 89.3 742.7 89.8 743.6 89.8C744 89.8 744.5 89.7 744.9 89.5L782 68.1C783.2 67.4 783.6 65.9 782.9 64.7C782.2 63.5 780.7 63.1 779.5 63.8L742.3 85C741.1 85.7 740.7 87.3 741.4 88.5Z" fill="black"/>
<path d="M710.5 58.8C710.9 59 711.3 59.1 711.8 59.1C712.7 59.1 713.5 58.6 714 57.8L735.4 20.7C736.1 19.5 735.7 18 734.5 17.3C733.3 16.6 731.8 17 731.1 18.2L709.7 55.3C708.9 56.6 709.3 58.1 710.5 58.8Z" fill="black"/>
<path d="M668.9 48.5002C670.3 48.5002 671.4 47.4002 671.4 46.0002V3.2002C671.4 1.8002 670.3 0.700195 668.9 0.700195C667.5 0.700195 666.4 1.8002 666.4 3.2002V46.0002C666.4 47.4002 667.5 48.5002 668.9 48.5002Z" fill="black"/>
<path d="M624.3 59.4998C624.8 60.2998 625.6 60.7998 626.5 60.7998C626.9 60.7998 627.3 60.6998 627.8 60.4998C629 59.7998 629.4 58.2998 628.7 57.0998L607.3 19.9998C606.6 18.7998 605.1 18.3998 603.9 19.0998C602.7 19.7998 602.3 21.2998 603 22.4998L624.3 59.4998Z" fill="black"/>
<path d="M557.6 70.8001L594.7 92.2001C595.1 92.4001 595.5 92.5001 596 92.5001C596.9 92.5001 597.7 92.0001 598.2 91.2001C598.9 90.0001 598.5 88.5001 597.3 87.8001L560.2 66.4001C559 65.7001 557.5 66.1001 556.8 67.3001C556 68.6001 556.4 70.1001 557.6 70.8001Z" fill="black"/>
<path d="M542.5 135.4H585.3C586.7 135.4 587.8 134.3 587.8 132.9C587.8 131.5 586.7 130.4 585.3 130.4H542.5C541.1 130.4 540 131.5 540 132.9C540 134.3 541.1 135.4 542.5 135.4Z" fill="black"/>
<path d="M267.468 202.985C274.568 201.185 327.768 214.285 327.768 214.285C438.368 230.085 441.468 160.485 441.468 160.485C441.468 160.485 443.668 143.285 431.368 138.485C419.068 133.685 412.368 142.285 412.368 142.285C412.368 142.285 383.268 206.585 256.368 159.185C133.968 113.485 80.3684 146.585 80.3684 146.585C80.3684 146.585 58.3684 165.085 71.1684 176.185C83.9684 187.185 109.768 171.985 109.768 171.985C109.768 171.985 127.668 162.985 159.268 165.885C208.668 170.485 228.668 189.185 228.668 189.185C211.268 219.285 210.168 222.885 189.268 267.385C189.268 267.385 150.068 358.085 116.668 420.085C85.6684 477.685 49.6684 466.785 30.6684 449.185C11.6684 431.585 2.46842 449.585 2.46842 449.585C-11.7316 467.385 39.9684 495.385 39.9684 495.385C111.768 522.285 164.668 401.485 164.668 401.485C164.668 401.485 208.168 303.585 229.468 263.985C251.468 223.185 267.468 202.985 267.468 202.985Z" fill="black"/>
<path d="M676.069 241.785C679.969 232.785 684.069 223.885 688.069 214.985C690.269 210.085 692.369 205.185 694.569 200.385C694.569 200.385 685.869 219.785 675.269 243.285C675.569 242.885 675.869 242.385 676.069 241.785Z" fill="black"/>
<path d="M656.969 284.185C657.169 283.785 657.269 283.385 657.469 282.885C647.069 306.185 638.368 325.485 638.168 325.985C640.568 320.685 642.968 315.385 645.268 310.085C649.268 301.485 653.169 292.885 656.969 284.185Z" fill="black"/>
<path d="M1125.37 421.785C1123.97 420.685 1122.37 419.785 1121.17 418.585C1115.97 413.685 1104.97 414.285 1100.47 421.585C1099.77 422.685 1098.97 423.785 1098.17 424.885C1095.37 428.885 1092.57 432.885 1089.67 436.885C1085.67 442.485 1080.87 447.285 1075.57 451.685C1070.97 455.485 1065.87 458.585 1060.17 460.285C1058.97 460.685 1057.67 461.285 1056.07 460.385C1056.37 459.485 1056.57 458.485 1056.87 457.585C1061.27 447.985 1065.67 438.485 1070.07 428.985C1080.87 405.885 1091.57 382.785 1102.37 359.685C1105.87 352.185 1109.57 344.785 1113.17 337.285C1115.77 331.785 1118.67 326.485 1120.77 320.685C1122.37 316.385 1123.17 312.085 1122.77 307.585C1122.17 298.985 1116.67 294.485 1109.07 292.085C1108.17 291.785 1107.07 292.085 1106.07 292.185C1101.57 292.985 1097.77 295.185 1094.17 297.885C1093.37 298.485 1092.67 299.385 1092.17 300.185C1088.87 305.985 1085.67 311.785 1082.47 317.685C1080.07 322.085 1078.67 326.985 1076.57 331.585C1073.27 338.885 1070.37 346.285 1066.57 353.385C1061.57 362.785 1057.07 372.485 1052.57 382.185C1043.37 401.485 1034.27 420.685 1025.27 440.085C1022.27 446.585 1017.97 451.885 1012.77 456.585C1009.37 459.685 1005.47 461.685 1001.07 462.685C995.769 463.885 990.769 463.285 986.269 459.985C983.969 458.285 982.669 456.185 982.469 453.285C982.469 452.285 982.469 451.185 982.569 450.185C982.969 445.685 984.569 441.485 986.369 437.485C991.469 426.585 996.869 415.885 1001.97 405.085C1012.07 383.785 1022.07 362.485 1032.17 341.185C1035.97 333.285 1039.17 325.185 1041.97 316.885C1043.27 313.185 1043.37 309.585 1042.27 306.085C1040.37 299.685 1035.07 293.285 1025.77 294.085C1022.97 294.285 1020.67 295.285 1018.67 297.285C1015.47 300.585 1012.87 304.385 1010.77 308.485C1007.17 315.585 1003.57 322.785 1000.17 329.985C990.269 351.085 980.569 372.185 970.669 393.285C967.369 400.285 964.069 407.185 960.569 414.085C957.169 420.985 953.869 427.985 951.369 435.285C949.669 440.185 947.269 444.785 944.969 449.385C942.169 455.185 937.169 458.585 931.369 460.885C926.969 462.585 922.369 462.185 917.769 461.685C913.269 461.285 910.569 458.685 909.069 454.585C909.669 453.285 910.069 451.985 910.669 450.785C913.669 444.185 916.769 437.585 919.869 430.985C930.869 407.485 941.769 383.985 952.769 360.485C955.669 354.285 958.369 348.085 961.469 341.985C964.569 335.885 967.769 329.985 970.369 323.585C972.069 319.285 973.269 314.885 973.169 310.185C973.069 303.985 970.269 299.085 966.269 294.785C964.169 292.485 961.069 291.385 958.169 290.285C955.969 289.485 953.869 289.385 951.569 289.885C948.569 290.485 945.969 291.785 943.769 293.985C942.469 295.285 941.469 297.085 939.569 297.685C936.469 296.285 933.569 294.885 930.569 293.585C921.169 289.285 911.269 288.285 901.069 289.585C888.769 291.185 878.069 296.085 868.769 304.185C864.169 308.185 860.069 312.585 857.169 317.985C855.769 320.585 854.369 323.285 852.969 325.885C842.369 332.885 829.369 334.085 821.669 333.985C821.869 329.185 821.869 324.385 821.469 321.085C821.069 319.785 819.569 314.685 819.069 313.485C816.069 305.685 810.569 299.885 803.669 295.685C793.969 289.885 783.369 287.385 772.069 288.585C765.469 289.285 758.869 291.185 752.969 294.085C746.369 297.285 739.869 300.985 734.269 305.985C732.969 307.185 731.669 308.385 730.169 309.385C722.369 314.985 717.269 322.885 713.069 331.285C706.469 344.485 700.169 357.985 693.769 371.385C685.069 389.385 676.469 407.485 667.869 425.485C665.369 430.785 662.669 436.185 660.569 441.685C659.069 445.485 657.269 448.885 654.369 451.785C650.269 455.685 646.169 459.385 640.869 461.785C636.069 463.885 631.369 463.785 626.669 461.785C625.469 461.285 624.769 460.485 624.269 459.285C623.169 456.385 622.269 453.385 622.369 450.185C622.569 445.485 623.669 441.085 625.669 436.885C628.769 430.385 632.069 423.885 635.269 417.385C641.369 404.885 647.369 392.285 653.469 379.785C657.469 371.485 661.669 363.285 665.369 354.985C666.769 351.885 668.069 348.885 669.369 345.785C692.469 334.185 715.069 311.985 736.569 285.485C754.669 263.185 761.169 241.485 764.769 225.085C767.269 217.985 768.069 210.585 767.569 202.785C767.569 201.885 767.269 200.985 767.069 200.185C765.669 195.785 763.669 191.885 761.169 188.285C760.569 187.385 759.969 186.585 759.369 185.885C757.969 184.185 756.469 182.585 754.769 181.085C751.369 178.185 747.569 175.885 743.169 174.785C736.869 173.185 730.569 172.685 724.369 174.885C723.269 175.285 722.069 175.585 720.969 175.785C716.169 176.985 711.869 179.385 707.869 182.185C704.069 184.885 701.069 188.285 699.169 192.685C698.469 194.185 697.469 195.485 696.669 196.885C695.969 198.185 695.069 199.385 694.469 200.685C692.269 205.585 690.169 210.485 687.969 215.285C683.969 224.185 679.869 233.085 675.969 242.085C675.769 242.685 675.469 243.185 675.169 243.585C669.369 256.385 663.169 270.385 657.369 283.185C657.169 283.585 657.069 284.085 656.869 284.485C652.969 293.185 649.069 301.785 645.169 310.385C642.769 315.685 640.369 320.985 638.069 326.285C627.769 333.385 616.969 335.485 610.769 336.185C611.569 330.485 611.869 325.185 610.969 322.385C610.769 321.885 606.869 312.985 604.769 309.385C602.369 305.085 588.269 294.785 586.069 293.785C580.269 290.985 574.069 289.785 567.669 288.985C558.669 287.885 550.269 289.785 542.069 293.285C537.469 295.285 533.069 297.885 528.769 300.485C525.969 302.185 523.269 304.085 520.969 306.285C516.869 310.085 512.869 314.085 509.069 318.285C506.169 321.485 503.869 325.085 502.069 329.085C498.969 335.985 495.769 342.785 492.569 349.685C482.669 371.185 472.769 392.785 462.969 414.285C459.469 421.885 454.969 428.885 449.969 435.485C444.469 442.785 437.969 448.985 430.869 454.585C424.569 459.585 417.569 462.885 409.669 464.285C403.569 465.385 397.469 466.385 391.169 464.585C383.469 462.285 377.469 458.385 374.869 450.385C374.469 448.985 374.069 447.585 373.669 446.085C372.769 443.485 372.969 440.885 373.569 438.185C374.469 434.085 376.169 430.285 377.969 426.585C385.369 410.585 392.869 394.685 400.269 378.585C403.969 370.685 407.969 362.885 410.869 354.585C411.269 353.385 412.069 352.185 412.769 351.085C415.669 346.585 418.569 342.085 421.469 337.685C423.569 334.385 426.169 331.585 429.069 328.985C431.469 326.885 433.969 325.285 436.969 324.185C440.369 322.885 443.669 323.285 446.869 324.785C448.269 325.385 448.869 326.385 448.869 327.885C448.969 330.885 448.169 333.785 447.069 336.485C445.469 340.485 443.869 344.485 442.269 348.485C439.469 355.685 439.869 362.685 443.669 369.485C445.269 372.385 447.369 375.085 450.569 376.085C455.769 377.785 461.169 378.085 465.869 374.385C468.469 372.385 470.669 369.985 473.069 367.785C475.769 365.285 477.569 362.285 478.969 358.985C481.269 353.685 482.969 348.185 484.469 342.585C484.769 341.285 485.169 339.985 485.169 338.685C485.169 334.385 485.169 330.085 485.069 325.785C484.969 323.285 484.769 320.685 484.169 318.285C482.469 312.285 479.869 306.585 475.769 301.785C470.969 295.985 464.769 292.385 457.469 290.785C451.069 289.385 444.569 288.785 438.069 288.785C426.869 288.785 416.369 291.585 407.369 298.685C404.369 301.085 401.369 303.585 398.569 306.185C396.969 307.685 395.669 309.585 394.569 311.485C392.769 314.585 391.269 317.785 389.569 320.885C384.169 330.785 379.269 340.885 374.869 351.285C373.469 354.685 371.869 358.085 370.269 361.385C365.369 371.685 360.369 381.885 355.369 392.185C350.069 402.985 345.269 413.985 339.569 424.485C337.169 428.885 334.869 433.385 331.969 437.485C327.369 443.985 322.269 450.285 317.269 456.485C315.569 458.485 313.469 460.185 311.369 461.885C307.569 464.985 303.269 465.285 298.769 464.185C293.769 463.085 290.969 458.985 291.769 453.985C292.269 451.185 293.069 448.485 293.869 445.885C295.269 441.785 297.069 437.885 298.869 433.985C307.269 415.485 315.669 396.985 323.969 378.485C331.569 361.585 338.869 344.585 346.469 327.685C349.069 322.085 350.669 316.285 351.569 310.285C351.969 307.885 351.869 305.185 351.469 302.785C350.669 298.485 348.269 295.185 343.669 293.985C342.269 293.585 340.869 292.985 339.369 292.785C332.269 291.485 325.869 292.985 320.469 297.985C320.269 298.185 319.969 298.185 319.669 298.285C319.569 298.285 319.369 298.285 319.269 298.185C318.869 297.985 318.469 297.785 318.069 297.585C312.969 294.285 307.569 291.785 301.369 290.685C290.869 288.885 280.769 289.685 270.869 293.485C266.569 295.185 262.369 296.885 258.169 298.685C256.569 299.385 254.869 300.185 253.469 301.085C244.169 307.085 237.269 315.185 233.169 325.685C230.869 331.485 228.469 337.185 225.969 342.885C221.369 353.185 216.869 363.485 212.069 373.685C207.269 384.185 202.169 394.585 197.269 404.985C192.869 414.485 187.669 423.685 183.569 433.385C180.869 439.785 178.369 446.285 176.969 453.085C175.369 460.985 176.769 468.085 181.169 474.685C184.269 479.385 188.269 483.385 192.069 487.485C194.869 490.485 198.169 492.585 201.969 494.085C204.469 495.085 206.969 495.885 209.569 496.685C216.369 498.785 223.369 498.885 230.269 497.885C241.969 496.285 252.469 491.785 261.669 484.185C262.369 483.685 263.069 483.185 263.669 482.785C265.469 483.385 266.169 484.685 267.069 485.785C270.169 489.585 274.069 492.085 278.469 493.985C280.269 494.785 282.069 495.385 283.869 495.985C300.569 501.185 316.369 499.185 331.069 489.585C336.769 485.885 342.169 481.785 347.769 477.885C347.769 477.885 347.969 477.885 348.069 477.985C348.969 478.785 349.769 479.585 350.669 480.385C359.469 488.885 369.569 495.185 381.869 497.285C383.569 497.585 385.369 497.785 387.169 497.985C392.469 498.485 397.769 498.385 403.169 497.985C415.369 497.285 427.169 494.785 438.569 490.385C442.469 488.885 446.169 486.985 449.569 484.685C451.569 483.385 453.569 482.185 455.669 481.285C457.669 482.085 458.869 483.685 460.169 484.985C463.669 488.485 467.369 491.585 471.869 493.785C479.669 497.585 487.869 498.985 496.469 497.885C497.969 497.685 499.469 497.685 500.869 497.585C507.369 497.485 513.469 495.985 519.169 492.885C519.869 492.485 520.469 492.185 521.169 491.885C521.569 491.685 521.969 491.485 522.369 491.485C522.369 491.485 548.469 473.485 560.569 453.985C560.769 453.685 560.969 453.285 561.169 452.985C561.369 452.685 561.569 452.285 561.769 451.985C564.869 446.785 568.169 441.585 570.969 436.185C577.569 423.585 584.069 410.885 589.069 397.585C591.569 391.085 594.369 384.685 597.069 378.285C598.469 374.885 599.869 371.585 601.269 368.185C610.069 367.185 616.669 364.885 621.369 362.685C618.569 368.985 615.869 375.285 612.669 381.385C609.669 387.185 607.069 393.185 604.469 399.085C602.669 403.385 600.469 407.585 598.269 411.685C598.269 411.685 574.069 458.485 593.469 481.385C594.469 482.385 595.469 483.385 596.469 484.385C596.569 484.485 596.669 484.585 596.769 484.685C597.369 485.285 597.969 485.985 598.569 486.585C602.269 490.885 607.169 493.385 612.369 495.185C619.369 497.685 626.669 497.385 633.869 496.785C636.969 496.485 640.069 495.985 643.069 495.285C652.069 493.085 660.369 489.185 667.969 483.885C668.669 483.385 669.469 483.085 670.369 482.585C671.369 483.385 672.369 484.085 673.169 484.885C677.769 489.285 683.069 492.485 688.969 494.685C699.969 498.785 711.169 499.285 722.469 495.485C723.569 495.085 724.669 494.685 725.869 494.485C729.769 493.985 733.169 492.085 736.569 490.385C737.969 489.685 739.269 488.585 741.169 488.585C741.169 488.585 761.969 471.585 768.069 458.485C768.169 458.085 768.269 457.785 768.469 457.385C768.669 456.985 768.769 456.685 768.969 456.285C772.969 447.685 777.069 438.985 781.169 430.385C785.369 421.585 789.669 412.785 793.869 403.985C798.369 394.785 802.769 385.585 807.369 376.485C808.569 374.085 810.869 369.885 813.169 365.585C824.669 364.385 831.769 363.485 835.269 363.085C835.269 363.185 835.169 363.285 835.069 363.485C825.969 382.885 817.369 402.685 807.469 421.685C805.569 425.385 804.169 429.285 802.669 433.085C802.569 433.485 802.369 433.785 802.269 434.185C802.269 434.485 798.069 472.385 814.969 487.285C819.469 490.585 823.969 493.685 829.269 495.685C835.569 497.985 841.769 500.385 849.169 500.285C848.969 501.585 848.969 502.385 848.769 502.985C848.069 504.785 847.169 506.485 846.469 508.285C843.769 514.885 840.269 521.085 836.269 526.985C831.269 534.385 825.769 541.285 819.869 547.985C817.369 550.885 814.569 553.585 811.569 555.985C809.769 557.485 807.869 558.985 806.069 560.485C800.869 564.685 795.269 568.385 789.269 571.285C781.369 575.185 772.969 577.485 764.069 577.985C759.769 578.185 756.769 577.085 754.869 572.885C752.469 567.785 748.369 565.885 742.869 566.685C737.169 567.585 732.669 570.385 729.669 575.485C728.169 578.085 727.369 580.985 726.669 583.785C725.369 589.285 726.169 594.385 729.069 599.185C733.869 607.085 741.069 611.785 750.269 613.185C756.469 614.185 762.669 614.185 768.869 613.085C776.269 611.785 783.669 609.885 790.869 607.785C793.669 606.985 796.569 606.185 799.369 605.085C811.569 600.585 822.569 593.885 832.269 585.185C833.569 583.985 834.969 582.885 836.469 581.885C841.269 578.785 845.269 574.785 848.669 570.285C852.569 565.085 856.269 559.585 859.469 553.985C865.169 544.285 870.769 534.485 875.969 524.585C880.969 514.985 886.769 505.885 891.069 495.885C891.469 494.885 892.369 493.985 893.069 492.985C893.869 493.185 894.369 493.285 894.969 493.485C905.669 497.485 916.369 498.885 927.469 495.185C935.069 492.685 942.669 490.185 949.769 486.485C952.869 484.885 955.869 482.885 959.069 480.985C959.769 481.585 960.469 482.085 961.069 482.685C967.869 488.885 975.569 493.485 984.269 496.185C988.369 497.485 992.469 498.785 996.869 498.785C997.669 498.785 998.369 499.285 999.469 499.685C998.069 502.885 996.669 505.885 995.469 508.885C993.069 514.685 989.869 519.985 986.469 525.185C981.369 533.085 975.569 540.285 969.269 547.285C967.469 549.285 965.669 551.285 963.569 552.885C958.169 557.385 952.669 561.885 946.569 565.785C936.869 571.985 926.469 575.785 914.969 576.485C913.669 576.585 912.269 576.685 910.969 576.585C908.569 576.385 906.769 575.285 905.669 573.085C905.369 572.385 905.069 571.785 904.669 571.085C902.069 566.585 897.869 564.385 892.769 565.285C886.969 566.285 882.269 569.185 879.369 574.585C877.669 577.785 876.669 581.185 876.069 584.685C875.369 588.785 876.069 592.785 878.069 596.385C882.869 605.085 890.269 610.485 900.169 611.885C907.269 612.885 914.369 612.885 921.369 611.385C923.869 610.885 926.369 610.485 928.769 609.785C935.669 607.885 942.569 606.185 949.269 603.885C961.469 599.685 972.269 592.885 981.869 584.285C983.269 582.985 984.769 581.685 986.369 580.685C991.369 577.485 995.369 573.285 998.769 568.685C1002.67 563.485 1006.27 557.985 1009.57 552.385C1015.17 542.985 1020.37 533.285 1025.67 523.685C1029.87 515.985 1034.07 508.385 1038.07 500.585C1039.07 498.585 1040.37 497.785 1042.47 497.785C1047.37 497.585 1052.27 497.285 1057.07 496.885C1065.97 496.085 1074.47 493.385 1082.87 490.585C1089.67 488.285 1095.77 484.585 1101.07 479.685C1105.07 475.985 1108.77 471.885 1112.37 467.685C1117.37 461.985 1121.17 455.485 1124.97 448.885C1128.17 443.285 1129.57 437.385 1129.37 430.985C1129.57 427.085 1128.27 424.085 1125.37 421.785ZM717.269 208.485C720.469 203.885 725.569 196.485 734.369 200.185C743.169 203.885 738.069 220.485 733.869 232.985C729.669 245.485 710.269 291.185 674.669 309.685C674.769 309.685 714.069 213.085 717.269 208.485ZM281.969 384.185C279.969 389.385 277.469 394.485 275.069 399.585C270.669 409.085 265.969 418.485 261.769 428.185C259.469 433.385 257.069 438.385 254.469 443.385C250.169 451.485 243.969 457.685 235.669 461.585C232.469 463.085 229.069 464.185 225.369 463.885C221.069 464.085 217.669 462.585 215.069 458.985C214.069 457.585 213.569 456.085 213.969 454.385C214.969 450.085 215.769 445.785 218.069 441.785C220.369 437.985 222.069 433.885 223.869 429.785C235.069 405.285 246.369 380.785 257.469 356.185C261.269 347.685 266.969 340.485 273.369 333.885C277.669 329.485 282.869 326.385 288.969 324.985C291.869 324.285 294.869 324.385 297.769 324.585C299.369 324.685 300.469 325.485 301.269 326.885C303.169 330.385 303.369 333.985 302.069 337.585C301.069 340.185 299.869 342.785 298.769 345.385C292.869 358.185 287.069 370.985 281.969 384.185ZM559.269 372.185C555.569 379.885 551.669 387.585 547.969 395.385C540.969 409.885 533.769 424.385 526.969 438.985C524.069 445.185 519.969 450.285 514.369 454.085C511.669 455.885 508.969 457.685 506.069 459.185C501.869 461.485 497.269 461.585 492.669 460.785C488.269 459.985 485.569 457.285 484.469 452.985C483.769 450.085 483.969 447.185 485.369 444.385C489.269 436.385 493.069 428.385 496.969 420.385C504.569 404.785 512.169 389.185 519.769 373.685C520.569 371.985 521.569 370.285 522.469 368.485C529.169 368.885 535.369 369.285 541.569 369.585C547.769 369.885 553.969 369.185 559.969 368.685C560.669 370.185 559.769 371.085 559.269 372.185ZM574.669 337.585C562.769 342.085 545.569 342.885 538.769 339.285C538.969 338.785 539.069 338.185 539.369 337.785C544.269 331.185 550.269 326.185 558.569 324.385C561.969 323.685 565.369 323.785 568.769 324.085C570.469 324.185 571.769 325.085 572.769 326.585C575.069 329.985 575.969 333.685 574.669 337.585ZM771.169 370.285C768.269 376.285 765.269 382.285 762.369 388.285C754.369 404.685 746.469 421.085 738.469 437.485C737.669 439.185 736.769 440.985 735.969 442.685C731.669 451.685 724.469 457.285 715.169 460.185C709.969 461.785 704.569 461.285 699.569 458.785C696.569 457.285 695.269 454.785 695.969 451.485C696.669 448.085 697.969 444.985 699.469 441.885C705.169 430.385 710.869 418.785 716.569 407.285C722.169 395.885 727.769 384.385 733.469 372.985C734.169 371.485 734.969 370.185 735.969 368.385C740.169 368.385 744.069 368.485 747.869 368.385C750.669 368.285 753.469 368.085 756.269 367.785C760.569 367.385 764.769 366.985 769.069 366.685C769.969 366.585 770.769 366.785 771.569 366.785C772.469 368.185 771.669 369.285 771.169 370.285ZM785.269 336.385C783.969 336.885 782.769 337.385 781.469 337.685C775.469 338.685 769.569 339.985 763.469 339.985C759.769 339.985 756.069 339.985 752.369 339.985C751.869 339.985 751.269 339.785 750.169 339.585C750.769 338.385 750.969 337.785 751.369 337.185C754.169 333.085 757.769 329.885 762.069 327.285C768.469 323.485 775.069 323.785 781.769 326.285C785.069 327.585 786.969 330.085 787.069 333.685C787.069 334.885 786.569 335.885 785.269 336.385ZM879.669 432.785C878.069 436.085 876.369 439.385 874.869 442.785C871.769 449.785 866.669 455.085 860.869 459.785C855.769 463.885 849.669 465.185 843.269 464.385C839.669 463.885 836.569 461.885 834.269 459.185C832.969 457.685 832.669 455.685 832.769 453.685C832.869 451.585 832.969 449.485 833.669 447.585C834.869 443.985 836.069 440.285 837.869 436.885C841.969 428.885 845.769 420.685 849.669 412.485C859.869 390.785 870.069 369.085 880.369 347.285C882.169 343.585 883.969 339.785 886.069 336.285C889.569 330.585 894.269 326.085 900.769 323.885C904.369 322.685 908.269 322.085 912.169 321.885C914.469 322.285 916.869 322.485 919.069 323.185C922.669 324.385 925.069 327.885 924.869 331.785C924.669 334.685 924.169 337.585 923.369 340.485C921.569 346.485 918.469 351.885 915.769 357.485C903.669 382.485 891.669 407.685 879.669 432.785Z" fill="black"/>
<path d="M596.2 131.3C596.2 132 596.4 132.6 596.9 133.1C597.4 133.6 598 133.9 598.7 133.9L729.5 134.3C729.8 134.3 730.1 134.2 730.4 134.1C730.7 134 733.1 132.9 735.8 130.5C737.7 128.8 739.6 126.5 740.9 123.3C743.3 117.3 742.7 110.3 739.1 102.4C732.4 87.5999 723.4 77.7999 713.8 71.4999C713 70.7999 712.1 70.0999 710.9 69.6999C683.5 53.7999 652.2 64.0999 651.6 64.2999C598.2 71.9999 596.2 130.6 596.2 131.3ZM732.3 126.8C732.1 127 731.8 127.2 731.6 127.4C731.2 124.6 730.6 120.7 729.3 116C730.3 116.5 731.5 116.9 732.8 117.2C734.5 117.6 735.4 118.2 735.7 119C736.3 120.9 734.1 124.7 732.3 126.8ZM729.6 104.6C729.9 104.2 731.2 101.8 731.8 98.7999C732.7 100.5 733.7 102.3 734.5 104.2C736 107.6 736.9 110.7 737.2 113.6C736.3 113.1 735.2 112.6 733.8 112.3C731.4 111.7 729.8 110.8 729.2 109.4C728.4 107.7 729.3 105.3 729.6 104.6ZM726.7 94.4999C727.9 96.6999 726 100.7 725.2 102.1C725.2 102.2 725 102.5 724.8 102.9C723.2 99.1999 721.3 95.4999 719 91.7999C719.7 91.9999 720.4 92.0999 721.3 92.0999C723.3 92.3999 725.9 92.8999 726.7 94.4999ZM716.2 79.2999C719 81.6999 721.8 84.4999 724.4 87.6999C723.5 87.4999 722.6 87.2999 721.6 87.2999C719.1 87.0999 717.4 86.3999 716.5 85.0999C715.6 83.3999 715.8 80.9999 716.2 79.2999ZM709.1 74.1999C710.5 74.6999 711.3 75.9999 711.7 76.6999C711.4 77.7999 710.9 79.4999 710.8 81.3999C708.6 79.0999 706.2 76.8999 703.5 74.8999C705.8 73.9999 707.7 73.6999 709.1 74.1999ZM701.7 70.2999C700.7 70.6999 699.7 71.1999 698.7 71.8999C694.6 69.4999 689.9 67.3999 684.7 65.9999C690.2 66.5999 696 67.8999 701.7 70.2999ZM660.2 68.2999C661.5 68.1999 662.9 68.1999 664.2 68.1999C688.9 68.1999 707 78.7999 717.9 99.6999C724.2 111.7 726.2 123.9 726.8 129.2L601.4 128.9L609.2 100.8C619.1 80.1999 636.3 69.3999 660.2 68.2999Z" fill="black"/>
<path d="M753.3 129.6C753.3 131 754.4 132.1 755.8 132.1H798.6C800 132.1 801.1 131 801.1 129.6C801.1 128.2 800 127.1 798.6 127.1H755.8C754.4 127.1 753.3 128.2 753.3 129.6Z" fill="black"/>
<path d="M777.7 101.9C777.3 100.6 776 99.8001 774.6 100.1L752.1 106.1C750.8 106.5 750 107.8 750.3 109.2C750.6 110.3 751.6 111.1 752.7 111.1C752.9 111.1 753.1 111.1 753.4 111L775.9 105C777.2 104.7 778 103.3 777.7 101.9Z" fill="black"/>
<path d="M728.6 72.3002C729.1 72.8002 729.7 73.0002 730.4 73.0002C731 73.0002 731.7 72.8002 732.2 72.3002L748.7 55.8002C749.7 54.8002 749.7 53.2002 748.7 52.2002C747.7 51.2002 746.1 51.2002 745.1 52.2002L728.6 68.7002C727.6 69.8002 727.6 71.4002 728.6 72.3002Z" fill="black"/>
<path d="M691.4 51.2002C691.6 51.3002 691.8 51.3002 692.1 51.3002C693.2 51.3002 694.2 50.6002 694.5 49.4002L700.5 26.9002C700.8 25.6002 700.1 24.2002 698.7 23.8002C697.3 23.4002 696 24.2002 695.6 25.6002L689.6 48.1002C689.2 49.4002 690 50.8002 691.4 51.2002Z" fill="black"/>
<path d="M645.5 49.7001C645.8 50.8001 646.8 51.6001 647.9 51.6001C648.1 51.6001 648.3 51.6001 648.6 51.5001C649.9 51.1001 650.7 49.8001 650.4 48.4001L644.4 25.9001C644.1 24.6001 642.7 23.8001 641.3 24.1001C640 24.5001 639.2 25.8001 639.5 27.2001L645.5 49.7001Z" fill="black"/>
<path d="M608.1 73.1C608.6 73.6 609.2 73.8 609.9 73.8C610.5 73.8 611.2 73.6 611.7 73.1C612.7 72.1 612.7 70.5 611.7 69.5L595.2 53C594.2 52 592.6 52 591.6 53C590.6 54 590.6 55.6 591.6 56.6L608.1 73.1Z" fill="black"/>
<path d="M566.2 101.3C564.9 100.9 563.5 101.7 563.1 103.1C562.7 104.4 563.5 105.8 564.9 106.2L587.4 112.2C587.6 112.3 587.8 112.3 588.1 112.3C589.2 112.3 590.2 111.6 590.5 110.4C590.9 109.1 590.1 107.7 588.7 107.3L566.2 101.3Z" fill="black"/>
<path d="M741.4 88.5C741.9 89.3 742.7 89.8 743.6 89.8C744 89.8 744.5 89.7 744.9 89.5L782 68.1C783.2 67.4 783.6 65.9 782.9 64.7C782.2 63.5 780.7 63.1 779.5 63.8L742.3 85C741.1 85.7 740.7 87.3 741.4 88.5Z" fill="black"/>
<path d="M710.5 58.8C710.9 59 711.3 59.1 711.8 59.1C712.7 59.1 713.5 58.6 714 57.8L735.4 20.7C736.1 19.5 735.7 18 734.5 17.3C733.3 16.6 731.8 17 731.1 18.2L709.7 55.3C708.9 56.6 709.3 58.1 710.5 58.8Z" fill="black"/>
<path d="M668.9 48.5002C670.3 48.5002 671.4 47.4002 671.4 46.0002V3.2002C671.4 1.8002 670.3 0.700195 668.9 0.700195C667.5 0.700195 666.4 1.8002 666.4 3.2002V46.0002C666.4 47.4002 667.5 48.5002 668.9 48.5002Z" fill="black"/>
<path d="M624.3 59.4998C624.8 60.2998 625.6 60.7998 626.5 60.7998C626.9 60.7998 627.3 60.6998 627.8 60.4998C629 59.7998 629.4 58.2998 628.7 57.0998L607.3 19.9998C606.6 18.7998 605.1 18.3998 603.9 19.0998C602.7 19.7998 602.3 21.2998 603 22.4998L624.3 59.4998Z" fill="black"/>
<path d="M557.6 70.8001L594.7 92.2001C595.1 92.4001 595.5 92.5001 596 92.5001C596.9 92.5001 597.7 92.0001 598.2 91.2001C598.9 90.0001 598.5 88.5001 597.3 87.8001L560.2 66.4001C559 65.7001 557.5 66.1001 556.8 67.3001C556 68.6001 556.4 70.1001 557.6 70.8001Z" fill="black"/>
<path d="M542.5 135.4H585.3C586.7 135.4 587.8 134.3 587.8 132.9C587.8 131.5 586.7 130.4 585.3 130.4H542.5C541.1 130.4 540 131.5 540 132.9C540 134.3 541.1 135.4 542.5 135.4Z" fill="black"/>
<path d="M267.468 202.985C274.568 201.185 327.768 214.285 327.768 214.285C438.368 230.085 441.468 160.485 441.468 160.485C441.468 160.485 443.668 143.285 431.368 138.485C419.068 133.685 412.368 142.285 412.368 142.285C412.368 142.285 383.268 206.585 256.368 159.185C133.968 113.485 80.3684 146.585 80.3684 146.585C80.3684 146.585 58.3684 165.085 71.1684 176.185C83.9684 187.185 109.768 171.985 109.768 171.985C109.768 171.985 127.668 162.985 159.268 165.885C208.668 170.485 228.668 189.185 228.668 189.185C211.268 219.285 210.168 222.885 189.268 267.385C189.268 267.385 150.068 358.085 116.668 420.085C85.6684 477.685 49.6684 466.785 30.6684 449.185C11.6684 431.585 2.46842 449.585 2.46842 449.585C-11.7316 467.385 39.9684 495.385 39.9684 495.385C111.768 522.285 164.668 401.485 164.668 401.485C164.668 401.485 208.168 303.585 229.468 263.985C251.468 223.185 267.468 202.985 267.468 202.985Z" fill="black"/>
<path d="M676.068 241.785C679.968 232.785 684.068 223.885 688.068 214.985C690.268 210.085 692.368 205.185 694.568 200.385C694.568 200.385 685.868 219.785 675.268 243.285C675.568 242.885 675.868 242.385 676.068 241.785Z" fill="black"/>
<path d="M656.968 284.185C657.168 283.785 657.268 283.385 657.468 282.885C647.068 306.185 638.368 325.485 638.168 325.985C640.568 320.685 642.968 315.385 645.268 310.085C649.268 301.485 653.168 292.885 656.968 284.185Z" fill="black"/>
<path d="M1125.37 421.785C1123.97 420.685 1122.37 419.785 1121.17 418.585C1115.97 413.685 1104.97 414.285 1100.47 421.585C1099.77 422.685 1098.97 423.785 1098.17 424.885C1095.37 428.885 1092.57 432.885 1089.67 436.885C1085.67 442.485 1080.87 447.285 1075.57 451.685C1070.97 455.485 1065.87 458.585 1060.17 460.285C1058.97 460.685 1057.67 461.285 1056.07 460.385C1056.37 459.485 1056.57 458.485 1056.87 457.585C1061.27 447.985 1065.67 438.485 1070.07 428.985C1080.87 405.885 1091.57 382.785 1102.37 359.685C1105.87 352.185 1109.57 344.785 1113.17 337.285C1115.77 331.785 1118.67 326.485 1120.77 320.685C1122.37 316.385 1123.17 312.085 1122.77 307.585C1122.17 298.985 1116.67 294.485 1109.07 292.085C1108.17 291.785 1107.07 292.085 1106.07 292.185C1101.57 292.985 1097.77 295.185 1094.17 297.885C1093.37 298.485 1092.67 299.385 1092.17 300.185C1088.87 305.985 1085.67 311.785 1082.47 317.685C1080.07 322.085 1078.67 326.985 1076.57 331.585C1073.27 338.885 1070.37 346.285 1066.57 353.385C1061.57 362.785 1057.07 372.485 1052.57 382.185C1043.37 401.485 1034.27 420.685 1025.27 440.085C1022.27 446.585 1017.97 451.885 1012.77 456.585C1009.37 459.685 1005.47 461.685 1001.07 462.685C995.768 463.885 990.768 463.285 986.268 459.985C983.968 458.285 982.668 456.185 982.468 453.285C982.468 452.285 982.468 451.185 982.568 450.185C982.968 445.685 984.568 441.485 986.368 437.485C991.468 426.585 996.868 415.885 1001.97 405.085C1012.07 383.785 1022.07 362.485 1032.17 341.185C1035.97 333.285 1039.17 325.185 1041.97 316.885C1043.27 313.185 1043.37 309.585 1042.27 306.085C1040.37 299.685 1035.07 293.285 1025.77 294.085C1022.97 294.285 1020.67 295.285 1018.67 297.285C1015.47 300.585 1012.87 304.385 1010.77 308.485C1007.17 315.585 1003.57 322.785 1000.17 329.985C990.268 351.085 980.568 372.185 970.668 393.285C967.368 400.285 964.068 407.185 960.568 414.085C957.168 420.985 953.868 427.985 951.368 435.285C949.668 440.185 947.268 444.785 944.968 449.385C942.168 455.185 937.168 458.585 931.368 460.885C926.968 462.585 922.368 462.185 917.768 461.685C913.268 461.285 910.568 458.685 909.068 454.585C909.668 453.285 910.068 451.985 910.668 450.785C913.668 444.185 916.768 437.585 919.868 430.985C930.868 407.485 941.768 383.985 952.768 360.485C955.668 354.285 958.368 348.085 961.468 341.985C964.568 335.885 967.768 329.985 970.368 323.585C972.068 319.285 973.268 314.885 973.168 310.185C973.068 303.985 970.268 299.085 966.268 294.785C964.168 292.485 961.068 291.385 958.168 290.285C955.968 289.485 953.868 289.385 951.568 289.885C948.568 290.485 945.968 291.785 943.768 293.985C942.468 295.285 941.468 297.085 939.568 297.685C936.468 296.285 933.568 294.885 930.568 293.585C921.168 289.285 911.268 288.285 901.068 289.585C888.768 291.185 878.068 296.085 868.768 304.185C864.168 308.185 860.068 312.585 857.168 317.985C855.768 320.585 854.368 323.285 852.968 325.885C842.368 332.885 829.368 334.085 821.668 333.985C821.868 329.185 821.868 324.385 821.468 321.085C821.068 319.785 819.568 314.685 819.068 313.485C816.068 305.685 810.568 299.885 803.668 295.685C793.968 289.885 783.368 287.385 772.068 288.585C765.468 289.285 758.868 291.185 752.968 294.085C746.368 297.285 739.868 300.985 734.268 305.985C732.968 307.185 731.668 308.385 730.168 309.385C722.368 314.985 717.268 322.885 713.068 331.285C706.468 344.485 700.168 357.985 693.768 371.385C685.068 389.385 676.468 407.485 667.868 425.485C665.368 430.785 662.668 436.185 660.568 441.685C659.068 445.485 657.268 448.885 654.368 451.785C650.268 455.685 646.168 459.385 640.868 461.785C636.068 463.885 631.368 463.785 626.668 461.785C625.468 461.285 624.768 460.485 624.268 459.285C623.168 456.385 622.268 453.385 622.368 450.185C622.568 445.485 623.668 441.085 625.668 436.885C628.768 430.385 632.068 423.885 635.268 417.385C641.368 404.885 647.368 392.285 653.468 379.785C657.468 371.485 661.668 363.285 665.368 354.985C666.768 351.885 668.068 348.885 669.368 345.785C692.468 334.185 715.068 311.985 736.568 285.485C754.668 263.185 761.168 241.485 764.768 225.085C767.268 217.985 768.068 210.585 767.568 202.785C767.568 201.885 767.268 200.985 767.068 200.185C765.668 195.785 763.668 191.885 761.168 188.285C760.568 187.385 759.968 186.585 759.368 185.885C757.968 184.185 756.468 182.585 754.768 181.085C751.368 178.185 747.568 175.885 743.168 174.785C736.868 173.185 730.568 172.685 724.368 174.885C723.268 175.285 722.068 175.585 720.968 175.785C716.168 176.985 711.868 179.385 707.868 182.185C704.068 184.885 701.068 188.285 699.168 192.685C698.468 194.185 697.468 195.485 696.668 196.885C695.968 198.185 695.068 199.385 694.468 200.685C692.268 205.585 690.168 210.485 687.968 215.285C683.968 224.185 679.868 233.085 675.968 242.085C675.768 242.685 675.468 243.185 675.168 243.585C669.368 256.385 663.168 270.385 657.368 283.185C657.168 283.585 657.068 284.085 656.868 284.485C652.968 293.185 649.068 301.785 645.168 310.385C642.768 315.685 640.368 320.985 638.068 326.285C627.768 333.385 616.968 335.485 610.768 336.185C611.568 330.485 611.868 325.185 610.968 322.385C610.768 321.885 606.868 312.985 604.768 309.385C602.368 305.085 588.268 294.785 586.068 293.785C580.268 290.985 574.068 289.785 567.668 288.985C558.668 287.885 550.268 289.785 542.068 293.285C537.468 295.285 533.068 297.885 528.768 300.485C525.968 302.185 523.268 304.085 520.968 306.285C516.868 310.085 512.868 314.085 509.068 318.285C506.168 321.485 503.868 325.085 502.068 329.085C498.968 335.985 495.768 342.785 492.568 349.685C482.668 371.185 472.768 392.785 462.968 414.285C459.468 421.885 454.968 428.885 449.968 435.485C444.468 442.785 437.968 448.985 430.868 454.585C424.568 459.585 417.568 462.885 409.668 464.285C403.568 465.385 397.468 466.385 391.168 464.585C383.468 462.285 377.468 458.385 374.868 450.385C374.468 448.985 374.068 447.585 373.668 446.085C372.768 443.485 372.968 440.885 373.568 438.185C374.468 434.085 376.168 430.285 377.968 426.585C385.368 410.585 392.868 394.685 400.268 378.585C403.968 370.685 407.968 362.885 410.868 354.585C411.268 353.385 412.068 352.185 412.768 351.085C415.668 346.585 418.568 342.085 421.468 337.685C423.568 334.385 426.168 331.585 429.068 328.985C431.468 326.885 433.968 325.285 436.968 324.185C440.368 322.885 443.668 323.285 446.868 324.785C448.268 325.385 448.868 326.385 448.868 327.885C448.968 330.885 448.168 333.785 447.068 336.485C445.468 340.485 443.868 344.485 442.268 348.485C439.468 355.685 439.868 362.685 443.668 369.485C445.268 372.385 447.368 375.085 450.568 376.085C455.768 377.785 461.168 378.085 465.868 374.385C468.468 372.385 470.668 369.985 473.068 367.785C475.768 365.285 477.568 362.285 478.968 358.985C481.268 353.685 482.968 348.185 484.468 342.585C484.768 341.285 485.168 339.985 485.168 338.685C485.168 334.385 485.168 330.085 485.068 325.785C484.968 323.285 484.768 320.685 484.168 318.285C482.468 312.285 479.868 306.585 475.768 301.785C470.968 295.985 464.768 292.385 457.468 290.785C451.068 289.385 444.568 288.785 438.068 288.785C426.868 288.785 416.368 291.585 407.368 298.685C404.368 301.085 401.368 303.585 398.568 306.185C396.968 307.685 395.668 309.585 394.568 311.485C392.768 314.585 391.268 317.785 389.568 320.885C384.168 330.785 379.268 340.885 374.868 351.285C373.468 354.685 371.868 358.085 370.268 361.385C365.368 371.685 360.368 381.885 355.368 392.185C350.068 402.985 345.268 413.985 339.568 424.485C337.168 428.885 334.868 433.385 331.968 437.485C327.368 443.985 322.268 450.285 317.268 456.485C315.568 458.485 313.468 460.185 311.368 461.885C307.568 464.985 303.268 465.285 298.768 464.185C293.768 463.085 290.968 458.985 291.768 453.985C292.268 451.185 293.068 448.485 293.868 445.885C295.268 441.785 297.068 437.885 298.868 433.985C307.268 415.485 315.668 396.985 323.968 378.485C331.568 361.585 338.868 344.585 346.468 327.685C349.068 322.085 350.668 316.285 351.568 310.285C351.968 307.885 351.868 305.185 351.468 302.785C350.668 298.485 348.268 295.185 343.668 293.985C342.268 293.585 340.868 292.985 339.368 292.785C332.268 291.485 325.868 292.985 320.468 297.985C320.268 298.185 319.968 298.185 319.668 298.285C319.568 298.285 319.368 298.285 319.268 298.185C318.868 297.985 318.468 297.785 318.068 297.585C312.968 294.285 307.568 291.785 301.368 290.685C290.868 288.885 280.768 289.685 270.868 293.485C266.568 295.185 262.368 296.885 258.168 298.685C256.568 299.385 254.868 300.185 253.468 301.085C244.168 307.085 237.268 315.185 233.168 325.685C230.868 331.485 228.468 337.185 225.968 342.885C221.368 353.185 216.868 363.485 212.068 373.685C207.268 384.185 202.168 394.585 197.268 404.985C192.868 414.485 187.668 423.685 183.568 433.385C180.868 439.785 178.368 446.285 176.968 453.085C175.368 460.985 176.768 468.085 181.168 474.685C184.268 479.385 188.268 483.385 192.068 487.485C194.868 490.485 198.168 492.585 201.968 494.085C204.468 495.085 206.968 495.885 209.568 496.685C216.368 498.785 223.368 498.885 230.268 497.885C241.968 496.285 252.468 491.785 261.668 484.185C262.368 483.685 263.068 483.185 263.668 482.785C265.468 483.385 266.168 484.685 267.068 485.785C270.168 489.585 274.068 492.085 278.468 493.985C280.268 494.785 282.068 495.385 283.868 495.985C300.568 501.185 316.368 499.185 331.068 489.585C336.768 485.885 342.168 481.785 347.768 477.885C347.768 477.885 347.968 477.885 348.068 477.985C348.968 478.785 349.768 479.585 350.668 480.385C359.468 488.885 369.568 495.185 381.868 497.285C383.568 497.585 385.368 497.785 387.168 497.985C392.468 498.485 397.768 498.385 403.168 497.985C415.368 497.285 427.168 494.785 438.568 490.385C442.468 488.885 446.168 486.985 449.568 484.685C451.568 483.385 453.568 482.185 455.668 481.285C457.668 482.085 458.868 483.685 460.168 484.985C463.668 488.485 467.368 491.585 471.868 493.785C479.668 497.585 487.868 498.985 496.468 497.885C497.968 497.685 499.468 497.685 500.868 497.585C507.368 497.485 513.468 495.985 519.168 492.885C519.868 492.485 520.468 492.185 521.168 491.885C521.568 491.685 521.968 491.485 522.368 491.485C522.368 491.485 548.468 473.485 560.568 453.985C560.768 453.685 560.968 453.285 561.168 452.985C561.368 452.685 561.568 452.285 561.768 451.985C564.868 446.785 568.168 441.585 570.968 436.185C577.568 423.585 584.068 410.885 589.068 397.585C591.568 391.085 594.368 384.685 597.068 378.285C598.468 374.885 599.868 371.585 601.268 368.185C610.068 367.185 616.668 364.885 621.368 362.685C618.568 368.985 615.868 375.285 612.668 381.385C609.668 387.185 607.068 393.185 604.468 399.085C602.668 403.385 600.468 407.585 598.268 411.685C598.268 411.685 574.068 458.485 593.468 481.385C594.468 482.385 595.468 483.385 596.468 484.385C596.568 484.485 596.668 484.585 596.768 484.685C597.368 485.285 597.968 485.985 598.568 486.585C602.268 490.885 607.168 493.385 612.368 495.185C619.368 497.685 626.668 497.385 633.868 496.785C636.968 496.485 640.068 495.985 643.068 495.285C652.068 493.085 660.368 489.185 667.968 483.885C668.668 483.385 669.468 483.085 670.368 482.585C671.368 483.385 672.368 484.085 673.168 484.885C677.768 489.285 683.068 492.485 688.968 494.685C699.968 498.785 711.168 499.285 722.468 495.485C723.568 495.085 724.668 494.685 725.868 494.485C729.768 493.985 733.168 492.085 736.568 490.385C737.968 489.685 739.268 488.585 741.168 488.585C741.168 488.585 761.968 471.585 768.068 458.485C768.168 458.085 768.268 457.785 768.468 457.385C768.668 456.985 768.768 456.685 768.968 456.285C772.968 447.685 777.068 438.985 781.168 430.385C785.368 421.585 789.668 412.785 793.868 403.985C798.368 394.785 802.768 385.585 807.368 376.485C808.568 374.085 810.868 369.885 813.168 365.585C824.668 364.385 831.768 363.485 835.268 363.085C835.268 363.185 835.168 363.285 835.068 363.485C825.968 382.885 817.368 402.685 807.468 421.685C805.568 425.385 804.168 429.285 802.668 433.085C802.568 433.485 802.368 433.785 802.268 434.185C802.268 434.485 798.068 472.385 814.968 487.285C819.468 490.585 823.968 493.685 829.268 495.685C835.568 497.985 841.768 500.385 849.168 500.285C848.968 501.585 848.968 502.385 848.768 502.985C848.068 504.785 847.168 506.485 846.468 508.285C843.768 514.885 840.268 521.085 836.268 526.985C831.268 534.385 825.768 541.285 819.868 547.985C817.368 550.885 814.568 553.585 811.568 555.985C809.768 557.485 807.868 558.985 806.068 560.485C800.868 564.685 795.268 568.385 789.268 571.285C781.368 575.185 772.968 577.485 764.068 577.985C759.768 578.185 756.768 577.085 754.868 572.885C752.468 567.785 748.368 565.885 742.868 566.685C737.168 567.585 732.668 570.385 729.668 575.485C728.168 578.085 727.368 580.985 726.668 583.785C725.368 589.285 726.168 594.385 729.068 599.185C733.868 607.085 741.068 611.785 750.268 613.185C756.468 614.185 762.668 614.185 768.868 613.085C776.268 611.785 783.668 609.885 790.868 607.785C793.668 606.985 796.568 606.185 799.368 605.085C811.568 600.585 822.568 593.885 832.268 585.185C833.568 583.985 834.968 582.885 836.468 581.885C841.268 578.785 845.268 574.785 848.668 570.285C852.568 565.085 856.268 559.585 859.468 553.985C865.168 544.285 870.768 534.485 875.968 524.585C880.968 514.985 886.768 505.885 891.068 495.885C891.468 494.885 892.368 493.985 893.068 492.985C893.868 493.185 894.368 493.285 894.968 493.485C905.668 497.485 916.368 498.885 927.468 495.185C935.068 492.685 942.668 490.185 949.768 486.485C952.868 484.885 955.868 482.885 959.068 480.985C959.768 481.585 960.468 482.085 961.068 482.685C967.868 488.885 975.568 493.485 984.268 496.185C988.368 497.485 992.468 498.785 996.868 498.785C997.668 498.785 998.368 499.285 999.468 499.685C998.068 502.885 996.668 505.885 995.468 508.885C993.068 514.685 989.868 519.985 986.468 525.185C981.368 533.085 975.568 540.285 969.268 547.285C967.468 549.285 965.668 551.285 963.568 552.885C958.168 557.385 952.668 561.885 946.568 565.785C936.868 571.985 926.468 575.785 914.968 576.485C913.668 576.585 912.268 576.685 910.968 576.585C908.568 576.385 906.768 575.285 905.668 573.085C905.368 572.385 905.068 571.785 904.668 571.085C902.068 566.585 897.868 564.385 892.768 565.285C886.968 566.285 882.268 569.185 879.368 574.585C877.668 577.785 876.668 581.185 876.068 584.685C875.368 588.785 876.068 592.785 878.068 596.385C882.868 605.085 890.268 610.485 900.168 611.885C907.268 612.885 914.368 612.885 921.368 611.385C923.868 610.885 926.368 610.485 928.768 609.785C935.668 607.885 942.568 606.185 949.268 603.885C961.468 599.685 972.268 592.885 981.868 584.285C983.268 582.985 984.768 581.685 986.368 580.685C991.368 577.485 995.368 573.285 998.768 568.685C1002.67 563.485 1006.27 557.985 1009.57 552.385C1015.17 542.985 1020.37 533.285 1025.67 523.685C1029.87 515.985 1034.07 508.385 1038.07 500.585C1039.07 498.585 1040.37 497.785 1042.47 497.785C1047.37 497.585 1052.27 497.285 1057.07 496.885C1065.97 496.085 1074.47 493.385 1082.87 490.585C1089.67 488.285 1095.77 484.585 1101.07 479.685C1105.07 475.985 1108.77 471.885 1112.37 467.685C1117.37 461.985 1121.17 455.485 1124.97 448.885C1128.17 443.285 1129.57 437.385 1129.37 430.985C1129.57 427.085 1128.27 424.085 1125.37 421.785ZM717.268 208.485C720.468 203.885 725.568 196.485 734.368 200.185C743.168 203.885 738.068 220.485 733.868 232.985C729.668 245.485 710.268 291.185 674.668 309.685C674.768 309.685 714.068 213.085 717.268 208.485ZM281.968 384.185C279.968 389.385 277.468 394.485 275.068 399.585C270.668 409.085 265.968 418.485 261.768 428.185C259.468 433.385 257.068 438.385 254.468 443.385C250.168 451.485 243.968 457.685 235.668 461.585C232.468 463.085 229.068 464.185 225.368 463.885C221.068 464.085 217.668 462.585 215.068 458.985C214.068 457.585 213.568 456.085 213.968 454.385C214.968 450.085 215.768 445.785 218.068 441.785C220.368 437.985 222.068 433.885 223.868 429.785C235.068 405.285 246.368 380.785 257.468 356.185C261.268 347.685 266.968 340.485 273.368 333.885C277.668 329.485 282.868 326.385 288.968 324.985C291.868 324.285 294.868 324.385 297.768 324.585C299.368 324.685 300.468 325.485 301.268 326.885C303.168 330.385 303.368 333.985 302.068 337.585C301.068 340.185 299.868 342.785 298.768 345.385C292.868 358.185 287.068 370.985 281.968 384.185ZM559.268 372.185C555.568 379.885 551.668 387.585 547.968 395.385C540.968 409.885 533.768 424.385 526.968 438.985C524.068 445.185 519.968 450.285 514.368 454.085C511.668 455.885 508.968 457.685 506.068 459.185C501.868 461.485 497.268 461.585 492.668 460.785C488.268 459.985 485.568 457.285 484.468 452.985C483.768 450.085 483.968 447.185 485.368 444.385C489.268 436.385 493.068 428.385 496.968 420.385C504.568 404.785 512.168 389.185 519.768 373.685C520.568 371.985 521.568 370.285 522.468 368.485C529.168 368.885 535.368 369.285 541.568 369.585C547.768 369.885 553.968 369.185 559.968 368.685C560.668 370.185 559.768 371.085 559.268 372.185ZM574.668 337.585C562.768 342.085 545.568 342.885 538.768 339.285C538.968 338.785 539.068 338.185 539.368 337.785C544.268 331.185 550.268 326.185 558.568 324.385C561.968 323.685 565.368 323.785 568.768 324.085C570.468 324.185 571.768 325.085 572.768 326.585C575.068 329.985 575.968 333.685 574.668 337.585ZM771.168 370.285C768.268 376.285 765.268 382.285 762.368 388.285C754.368 404.685 746.468 421.085 738.468 437.485C737.668 439.185 736.768 440.985 735.968 442.685C731.668 451.685 724.468 457.285 715.168 460.185C709.968 461.785 704.568 461.285 699.568 458.785C696.568 457.285 695.268 454.785 695.968 451.485C696.668 448.085 697.968 444.985 699.468 441.885C705.168 430.385 710.868 418.785 716.568 407.285C722.168 395.885 727.768 384.385 733.468 372.985C734.168 371.485 734.968 370.185 735.968 368.385C740.168 368.385 744.068 368.485 747.868 368.385C750.668 368.285 753.468 368.085 756.268 367.785C760.568 367.385 764.768 366.985 769.068 366.685C769.968 366.585 770.768 366.785 771.568 366.785C772.468 368.185 771.668 369.285 771.168 370.285ZM785.268 336.385C783.968 336.885 782.768 337.385 781.468 337.685C775.468 338.685 769.568 339.985 763.468 339.985C759.768 339.985 756.068 339.985 752.368 339.985C751.868 339.985 751.268 339.785 750.168 339.585C750.768 338.385 750.968 337.785 751.368 337.185C754.168 333.085 757.768 329.885 762.068 327.285C768.468 323.485 775.068 323.785 781.768 326.285C785.068 327.585 786.968 330.085 787.068 333.685C787.068 334.885 786.568 335.885 785.268 336.385ZM879.668 432.785C878.068 436.085 876.368 439.385 874.868 442.785C871.768 449.785 866.668 455.085 860.868 459.785C855.768 463.885 849.668 465.185 843.268 464.385C839.668 463.885 836.568 461.885 834.268 459.185C832.968 457.685 832.668 455.685 832.768 453.685C832.868 451.585 832.968 449.485 833.668 447.585C834.868 443.985 836.068 440.285 837.868 436.885C841.968 428.885 845.768 420.685 849.668 412.485C859.868 390.785 870.068 369.085 880.368 347.285C882.168 343.585 883.968 339.785 886.068 336.285C889.568 330.585 894.268 326.085 900.768 323.885C904.368 322.685 908.268 322.085 912.168 321.885C914.468 322.285 916.868 322.485 919.068 323.185C922.668 324.385 925.068 327.885 924.868 331.785C924.668 334.685 924.168 337.585 923.368 340.485C921.568 346.485 918.468 351.885 915.768 357.485C903.668 382.485 891.668 407.685 879.668 432.785Z" fill="black"/>
</svg>
