<svg width="493" height="308" viewBox="0 0 493 308" fill="none" xmlns="http://www.w3.org/2000/svg">
<path d="M259.672 84.0453C259.672 84.3148 259.749 84.5458 259.942 84.7383C260.135 84.9308 260.366 85.0463 260.635 85.0463L311.014 85.2003C311.129 85.2003 311.245 85.1618 311.36 85.1233C311.476 85.0848 312.4 84.6613 313.44 83.7373C314.172 83.0828 314.904 82.1973 315.404 80.9653C316.329 78.6553 316.098 75.9603 314.711 72.9188C312.131 67.2208 308.664 63.4478 304.967 61.0223C304.659 60.7528 304.312 60.4833 303.85 60.3293C293.297 54.2078 281.241 58.1733 281.01 58.2503C260.443 61.2148 259.672 83.7758 259.672 84.0453ZM312.092 82.3128C312.015 82.3898 311.9 82.4668 311.823 82.5438C311.668 81.4658 311.437 79.9643 310.937 78.1548C311.322 78.3473 311.784 78.5013 312.285 78.6168C312.939 78.7708 313.286 79.0018 313.402 79.3098C313.633 80.0413 312.785 81.5043 312.092 82.3128ZM311.052 73.7658C311.168 73.6118 311.668 72.6878 311.9 71.5328C312.246 72.1873 312.631 72.8803 312.939 73.6118C313.517 74.9208 313.864 76.1143 313.979 77.2308C313.633 77.0383 313.209 76.8458 312.67 76.7303C311.745 76.4993 311.129 76.1528 310.898 75.6138C310.59 74.9593 310.937 74.0353 311.052 73.7658ZM309.935 69.8773C310.397 70.7243 309.666 72.2643 309.358 72.8033C309.358 72.8418 309.28 72.9573 309.203 73.1113C308.587 71.6868 307.855 70.2623 306.97 68.8378C307.239 68.9148 307.509 68.9533 307.855 68.9533C308.626 69.0688 309.627 69.2613 309.935 69.8773ZM305.891 64.0253C306.97 64.9493 308.048 66.0273 309.049 67.2593C308.703 67.1823 308.356 67.1053 307.971 67.1053C307.008 67.0283 306.353 66.7588 306.007 66.2583C305.66 65.6038 305.737 64.6798 305.891 64.0253ZM303.156 62.0618C303.696 62.2543 304.004 62.7548 304.158 63.0243C304.042 63.4478 303.85 64.1023 303.811 64.8338C302.964 63.9483 302.04 63.1013 301 62.3313C301.885 61.9848 302.617 61.8693 303.156 62.0618ZM300.306 60.5603C299.921 60.7143 299.536 60.9068 299.151 61.1763C297.572 60.2523 295.762 59.4438 293.759 58.9048C295.877 59.1358 298.111 59.6363 300.306 60.5603ZM284.322 59.7903C284.823 59.7518 285.362 59.7518 285.863 59.7518C295.376 59.7518 302.348 63.8328 306.546 71.8793C308.972 76.4993 309.743 81.1963 309.974 83.2368L261.675 83.1213L264.679 72.3028C268.492 64.3718 275.117 60.2138 284.322 59.7903Z" fill="#EB5A95"/>
<path d="M320.18 83.3912C320.18 83.9302 320.604 84.3537 321.143 84.3537H337.628C338.167 84.3537 338.591 83.9302 338.591 83.3912C338.591 82.8522 338.167 82.4287 337.628 82.4287H321.143C320.604 82.4287 320.18 82.8522 320.18 83.3912Z" fill="#EB5A95"/>
<path d="M329.578 72.7265C329.424 72.226 328.923 71.918 328.384 72.0335L319.718 74.3435C319.217 74.4975 318.909 74.998 319.025 75.537C319.14 75.9605 319.525 76.2685 319.949 76.2685C320.026 76.2685 320.103 76.2685 320.219 76.23L328.885 73.92C329.385 73.8045 329.694 73.2655 329.578 72.7265Z" fill="#EB5A95"/>
<path d="M310.667 61.3305C310.859 61.523 311.09 61.6 311.36 61.6C311.591 61.6 311.861 61.523 312.053 61.3305L318.408 54.978C318.794 54.593 318.794 53.977 318.408 53.592C318.023 53.207 317.407 53.207 317.022 53.592L310.667 59.9445C310.282 60.368 310.282 60.984 310.667 61.3305Z" fill="#EB5A95"/>
<path d="M296.339 53.2068C296.416 53.2453 296.493 53.2453 296.609 53.2453C297.033 53.2453 297.418 52.9758 297.533 52.5138L299.844 43.8513C299.96 43.3508 299.69 42.8118 299.151 42.6578C298.612 42.5038 298.111 42.8118 297.957 43.3508L295.646 52.0133C295.492 52.5138 295.8 53.0528 296.339 53.2068Z" fill="#EB5A95"/>
<path d="M278.66 52.6293C278.776 53.0528 279.161 53.3608 279.585 53.3608C279.662 53.3608 279.739 53.3608 279.854 53.3223C280.355 53.1683 280.663 52.6678 280.548 52.1288L278.237 43.4663C278.121 42.9658 277.582 42.6578 277.043 42.7733C276.542 42.9273 276.234 43.4278 276.349 43.9668L278.66 52.6293Z" fill="#EB5A95"/>
<path d="M264.256 61.6386C264.448 61.8311 264.679 61.9081 264.949 61.9081C265.18 61.9081 265.45 61.8311 265.642 61.6386C266.027 61.2536 266.027 60.6376 265.642 60.2526L259.287 53.9001C258.902 53.5151 258.286 53.5151 257.901 53.9001C257.516 54.2851 257.516 54.9011 257.901 55.2861L264.256 61.6386Z" fill="#EB5A95"/>
<path d="M248.117 72.4957C247.617 72.3417 247.078 72.6497 246.923 73.1887C246.769 73.6892 247.078 74.2282 247.617 74.3822L256.283 76.6922C256.36 76.7307 256.437 76.7307 256.552 76.7307C256.976 76.7307 257.361 76.4612 257.477 75.9992C257.631 75.4987 257.323 74.9597 256.783 74.8057L248.117 72.4957Z" fill="#EB5A95"/>
<path d="M315.597 67.5674C315.79 67.8754 316.098 68.0679 316.444 68.0679C316.598 68.0679 316.791 68.0294 316.945 67.9524L331.234 59.7134C331.697 59.4439 331.851 58.8664 331.581 58.4044C331.311 57.9424 330.734 57.7884 330.271 58.0579L315.944 66.2199C315.481 66.4894 315.327 67.1054 315.597 67.5674Z" fill="#EB5A95"/>
<path d="M303.696 56.1331C303.85 56.2101 304.004 56.2486 304.197 56.2486C304.543 56.2486 304.851 56.0561 305.044 55.7481L313.286 41.4646C313.556 41.0026 313.402 40.4251 312.94 40.1556C312.478 39.8861 311.9 40.0401 311.63 40.5021L303.388 54.7856C303.08 55.2861 303.234 55.8636 303.696 56.1331Z" fill="#EB5A95"/>
<path d="M287.673 52.1677C288.213 52.1677 288.636 51.7442 288.636 51.2052V34.7271C288.636 34.1881 288.213 33.7646 287.673 33.7646C287.134 33.7646 286.71 34.1881 286.71 34.7271V51.2052C286.71 51.7442 287.134 52.1677 287.673 52.1677Z" fill="#EB5A95"/>
<path d="M270.495 56.4024C270.688 56.7104 270.996 56.9029 271.343 56.9029C271.497 56.9029 271.651 56.8644 271.843 56.7874C272.305 56.5179 272.459 55.9404 272.19 55.4784L263.948 41.1949C263.678 40.7329 263.1 40.5789 262.638 40.8484C262.176 41.1179 262.022 41.6954 262.291 42.1574L270.495 56.4024Z" fill="#EB5A95"/>
<path d="M244.805 60.7529L259.095 68.9919C259.249 69.0689 259.403 69.1074 259.595 69.1074C259.942 69.1074 260.25 68.9149 260.443 68.6069C260.712 68.1449 260.558 67.5674 260.096 67.2979L245.807 59.0589C245.345 58.7894 244.767 58.9434 244.497 59.4054C244.189 59.9059 244.343 60.4834 244.805 60.7529Z" fill="#EB5A95"/>
<path d="M238.989 85.6242H255.474C256.013 85.6242 256.437 85.2007 256.437 84.6617C256.437 84.1227 256.013 83.6992 255.474 83.6992H238.989C238.45 83.6992 238.026 84.1227 238.026 84.6617C238.026 85.2007 238.45 85.6242 238.989 85.6242Z" fill="#EB5A95"/>
<path d="M133.059 111.644C135.794 110.951 156.284 115.995 156.284 115.995C198.882 122.078 200.076 95.2818 200.076 95.2818C200.076 95.2818 200.924 88.6598 196.186 86.8118C191.449 84.9638 188.868 88.2748 188.868 88.2748C188.868 88.2748 177.66 113.03 128.784 94.7813C81.6408 77.1868 60.9964 89.9303 60.9964 89.9303C60.9964 89.9303 52.523 97.0528 57.453 101.326C62.383 105.561 72.32 99.7093 72.32 99.7093C72.32 99.7093 79.2143 96.2443 91.3852 97.3608C110.412 99.1318 118.115 106.331 118.115 106.331C111.413 117.92 110.99 119.306 102.94 136.438C102.94 136.438 87.8418 171.358 74.9776 195.228C63.0377 217.404 49.1721 213.207 41.8541 206.431C34.5362 199.655 30.9927 206.585 30.9927 206.585C25.5235 213.438 45.4361 224.218 45.4361 224.218C73.0903 234.575 93.4651 188.067 93.4651 188.067C93.4651 188.067 110.219 150.375 118.423 135.129C126.897 119.421 133.059 111.644 133.059 111.644Z" fill="#EB5A95"/>
<path d="M290.434 126.582C291.936 123.117 293.515 119.691 295.056 116.264C295.903 114.378 296.712 112.491 297.559 110.643C297.559 110.643 294.209 118.112 290.126 127.16C290.242 127.006 290.357 126.813 290.434 126.582Z" fill="#EB5A95"/>
<path d="M283.077 142.906C283.154 142.752 283.193 142.598 283.27 142.406C279.264 151.376 275.913 158.807 275.836 158.999C276.761 156.959 277.685 154.918 278.571 152.878C280.112 149.567 281.614 146.256 283.077 142.906Z" fill="#EB5A95"/>
<path d="M463.485 195.882C462.946 195.459 462.329 195.112 461.867 194.65C459.864 192.764 455.628 192.995 453.894 195.805C453.625 196.229 453.317 196.652 453.009 197.076C451.93 198.616 450.852 200.156 449.735 201.696C448.194 203.852 446.345 205.7 444.304 207.394C442.532 208.857 440.568 210.05 438.373 210.705C437.91 210.859 437.41 211.09 436.793 210.743C436.909 210.397 436.986 210.012 437.102 209.665C438.796 205.969 440.491 202.312 442.186 198.654C446.345 189.761 450.466 180.867 454.626 171.974C455.974 169.086 457.399 166.237 458.786 163.35C459.787 161.232 460.904 159.192 461.713 156.959C462.329 155.303 462.637 153.648 462.483 151.915C462.252 148.604 460.134 146.872 457.207 145.948C456.86 145.832 456.436 145.948 456.051 145.986C454.318 146.294 452.854 147.141 451.468 148.181C451.16 148.412 450.89 148.758 450.698 149.066C449.427 151.299 448.194 153.532 446.962 155.804C446.037 157.498 445.498 159.384 444.689 161.155C443.418 163.966 442.301 166.815 440.838 169.548C438.912 173.167 437.179 176.902 435.445 180.636C431.902 188.067 428.397 195.459 424.931 202.928C423.775 205.43 422.119 207.471 420.116 209.28C418.807 210.474 417.305 211.244 415.61 211.629C413.569 212.091 411.643 211.86 409.91 210.589C409.024 209.935 408.523 209.126 408.446 208.01C408.446 207.625 408.446 207.201 408.484 206.816C408.639 205.084 409.255 203.467 409.948 201.927C411.912 197.73 413.992 193.611 415.956 189.453C419.847 181.252 423.698 173.052 427.588 164.851C429.052 161.81 430.284 158.691 431.363 155.496C431.863 154.071 431.902 152.685 431.478 151.338C430.746 148.874 428.705 146.41 425.123 146.718C424.045 146.795 423.159 147.18 422.389 147.95C421.156 149.22 420.155 150.683 419.346 152.262C417.959 154.995 416.573 157.767 415.263 160.539C411.45 168.663 407.714 176.786 403.901 184.91C402.63 187.605 401.359 190.261 400.011 192.918C398.701 195.574 397.43 198.269 396.468 201.08C395.813 202.966 394.888 204.737 394.003 206.508C392.924 208.741 390.998 210.05 388.764 210.936C387.07 211.59 385.298 211.436 383.526 211.244C381.793 211.09 380.753 210.089 380.175 208.51C380.407 208.01 380.561 207.509 380.792 207.047C381.947 204.506 383.141 201.965 384.335 199.424C388.572 190.377 392.77 181.329 397.007 172.282C398.124 169.895 399.164 167.508 400.358 165.159C401.552 162.811 402.784 160.539 403.786 158.075C404.44 156.42 404.902 154.726 404.864 152.916C404.825 150.529 403.747 148.643 402.206 146.987C401.398 146.102 400.204 145.678 399.087 145.255C398.239 144.947 397.43 144.908 396.545 145.101C395.389 145.332 394.388 145.832 393.54 146.679C393.04 147.18 392.655 147.873 391.923 148.104C390.729 147.565 389.612 147.026 388.456 146.525C384.836 144.87 381.023 144.485 377.094 144.985C372.357 145.601 368.236 147.488 364.654 150.606C362.882 152.146 361.303 153.84 360.186 155.919C359.647 156.92 359.107 157.96 358.568 158.961C354.486 161.656 349.479 162.118 346.513 162.079C346.59 160.231 346.59 158.383 346.436 157.113C346.282 156.612 345.704 154.649 345.511 154.187C344.356 151.184 342.238 148.951 339.58 147.334C335.844 145.101 331.761 144.138 327.409 144.6C324.867 144.87 322.325 145.601 320.053 146.718C317.511 147.95 315.007 149.374 312.85 151.299C312.349 151.761 311.849 152.223 311.271 152.608C308.267 154.764 306.302 157.806 304.685 161.04C302.143 166.122 299.716 171.319 297.251 176.478C293.9 183.408 290.588 190.377 287.276 197.307C286.313 199.347 285.273 201.426 284.464 203.544C283.886 205.007 283.193 206.316 282.076 207.432C280.497 208.934 278.918 210.358 276.877 211.282C275.028 212.091 273.218 212.052 271.407 211.282C270.945 211.09 270.676 210.782 270.483 210.32C270.059 209.203 269.713 208.048 269.751 206.816C269.828 205.007 270.252 203.313 271.022 201.696C272.216 199.193 273.487 196.691 274.72 194.188C277.069 189.376 279.38 184.525 281.73 179.712C283.27 176.517 284.888 173.36 286.313 170.164C286.852 168.971 287.353 167.816 287.854 166.622C296.751 162.156 305.455 153.609 313.736 143.407C320.707 134.821 323.211 126.467 324.597 120.153C325.56 117.419 325.868 114.57 325.676 111.567C325.676 111.221 325.56 110.874 325.483 110.566C324.944 108.872 324.174 107.371 323.211 105.985C322.98 105.638 322.749 105.33 322.518 105.061C321.978 104.406 321.401 103.79 320.746 103.213C319.436 102.096 317.973 101.211 316.278 100.787C313.852 100.171 311.425 99.9787 309.037 100.826C308.613 100.98 308.151 101.095 307.728 101.172C305.879 101.634 304.223 102.558 302.682 103.636C301.218 104.676 300.063 105.985 299.331 107.679C299.062 108.256 298.676 108.757 298.368 109.296C298.099 109.796 297.752 110.258 297.521 110.759C296.674 112.645 295.865 114.532 295.017 116.38C293.477 119.806 291.898 123.233 290.396 126.698C290.319 126.929 290.203 127.121 290.087 127.275C287.853 132.203 285.466 137.593 283.232 142.521C283.155 142.675 283.116 142.868 283.039 143.022C281.537 146.371 280.035 149.682 278.533 152.993C277.608 155.034 276.684 157.074 275.798 159.115C271.831 161.848 267.671 162.657 265.283 162.926C265.591 160.732 265.707 158.691 265.36 157.613C265.283 157.421 263.781 153.994 262.972 152.608C262.048 150.953 256.617 146.987 255.77 146.602C253.536 145.524 251.148 145.062 248.683 144.754C245.217 144.331 241.981 145.062 238.823 146.41C237.051 147.18 235.357 148.181 233.701 149.182C232.622 149.836 231.582 150.568 230.696 151.415C229.117 152.878 227.577 154.418 226.113 156.035C224.996 157.267 224.11 158.653 223.417 160.193C222.223 162.849 220.99 165.467 219.758 168.124C215.945 176.401 212.132 184.717 208.357 192.995C207.009 195.921 205.276 198.616 203.35 201.157C201.232 203.967 198.728 206.354 195.994 208.51C193.567 210.435 190.871 211.706 187.828 212.245C185.479 212.668 183.13 213.053 180.703 212.36C177.737 211.475 175.426 209.973 174.425 206.893C174.271 206.354 174.117 205.815 173.963 205.238C173.616 204.237 173.693 203.236 173.924 202.196C174.271 200.618 174.926 199.155 175.619 197.73C178.469 191.57 181.358 185.449 184.208 179.25C185.633 176.209 187.174 173.206 188.291 170.01C188.445 169.548 188.753 169.086 189.022 168.663C190.139 166.93 191.256 165.198 192.373 163.504C193.182 162.233 194.184 161.155 195.3 160.154C196.225 159.346 197.188 158.73 198.343 158.306C199.653 157.806 200.924 157.96 202.156 158.537C202.695 158.768 202.927 159.153 202.927 159.731C202.965 160.886 202.657 162.002 202.233 163.042C201.617 164.582 201.001 166.122 200.385 167.662C199.306 170.434 199.46 173.129 200.924 175.747C201.54 176.863 202.349 177.903 203.581 178.288C205.584 178.942 207.664 179.058 209.474 177.633C210.476 176.863 211.323 175.939 212.247 175.092C213.287 174.13 213.981 172.975 214.52 171.704C215.406 169.664 216.06 167.546 216.638 165.39C216.754 164.89 216.908 164.389 216.908 163.889C216.908 162.233 216.908 160.578 216.869 158.922C216.831 157.96 216.754 156.959 216.523 156.035C215.868 153.725 214.866 151.53 213.287 149.682C211.438 147.449 209.051 146.063 206.239 145.447C203.774 144.908 201.27 144.677 198.767 144.677C194.453 144.677 190.409 145.755 186.943 148.489C185.787 149.413 184.632 150.375 183.553 151.376C182.937 151.954 182.436 152.685 182.013 153.417C181.319 154.61 180.742 155.842 180.087 157.036C178.007 160.847 176.12 164.736 174.425 168.74C173.886 170.049 173.27 171.358 172.653 172.628C170.766 176.594 168.84 180.521 166.914 184.486C164.873 188.644 163.024 192.879 160.829 196.922C159.905 198.616 159.019 200.348 157.902 201.927C156.13 204.429 154.166 206.855 152.24 209.242C151.585 210.012 150.776 210.666 149.968 211.321C148.504 212.514 146.848 212.63 145.115 212.206C143.189 211.783 142.11 210.204 142.419 208.279C142.611 207.201 142.919 206.162 143.227 205.161C143.767 203.582 144.46 202.081 145.153 200.579C148.388 193.457 151.624 186.334 154.821 179.212C157.748 172.705 160.559 166.16 163.487 159.654C164.488 157.498 165.104 155.265 165.451 152.955C165.605 152.031 165.566 150.991 165.412 150.067C165.104 148.412 164.18 147.141 162.408 146.679C161.869 146.525 161.33 146.294 160.752 146.217C158.017 145.717 155.552 146.294 153.472 148.219C153.395 148.296 153.28 148.296 153.164 148.335C153.126 148.335 153.049 148.335 153.01 148.296C152.856 148.219 152.702 148.142 152.548 148.065C150.584 146.795 148.504 145.832 146.116 145.409C142.072 144.716 138.182 145.024 134.369 146.487C132.713 147.141 131.095 147.796 129.477 148.489C128.861 148.758 128.206 149.066 127.667 149.413C124.085 151.723 121.427 154.841 119.848 158.884C118.962 161.117 118.038 163.311 117.075 165.506C115.303 169.471 113.57 173.437 111.722 177.364C109.873 181.406 107.908 185.41 106.021 189.414C104.327 193.072 102.324 196.614 100.745 200.348C99.7047 202.812 98.7418 205.315 98.2026 207.933C97.5863 210.974 98.1255 213.708 99.8202 216.249C101.014 218.058 102.555 219.598 104.018 221.177C105.097 222.332 106.368 223.14 107.831 223.718C108.794 224.103 109.757 224.411 110.759 224.719C113.378 225.527 116.074 225.566 118.731 225.181C123.238 224.565 127.282 222.832 130.825 219.906C131.095 219.714 131.365 219.521 131.596 219.367C132.289 219.598 132.558 220.099 132.905 220.522C134.099 221.985 135.601 222.948 137.296 223.679C137.989 223.987 138.682 224.218 139.376 224.449C145.808 226.451 151.893 225.681 157.555 221.985C159.751 220.561 161.83 218.982 163.987 217.481C163.987 217.481 164.064 217.481 164.103 217.519C164.449 217.827 164.758 218.135 165.104 218.443C168.494 221.716 172.384 224.141 177.121 224.95C177.776 225.065 178.469 225.142 179.162 225.219C181.204 225.412 183.245 225.373 185.325 225.219C190.024 224.95 194.569 223.987 198.959 222.293C200.462 221.716 201.887 220.984 203.196 220.099C203.966 219.598 204.737 219.136 205.546 218.79C206.316 219.098 206.778 219.714 207.279 220.214C208.627 221.562 210.052 222.755 211.785 223.602C214.789 225.065 217.948 225.604 221.26 225.181C221.838 225.104 222.415 225.104 222.955 225.065C225.458 225.027 227.808 224.449 230.003 223.256C230.273 223.102 230.504 222.986 230.773 222.871C230.927 222.794 231.081 222.717 231.236 222.717C231.236 222.717 241.288 215.787 245.949 208.279C246.026 208.164 246.103 208.01 246.18 207.894C246.257 207.779 246.334 207.625 246.411 207.509C247.605 205.507 248.876 203.505 249.954 201.426C252.496 196.575 255 191.686 256.925 186.565C257.888 184.063 258.967 181.599 260.007 179.135C260.546 177.826 261.085 176.555 261.624 175.246C265.014 174.861 267.556 173.976 269.366 173.129C268.288 175.554 267.248 177.98 266.015 180.328C264.86 182.561 263.858 184.871 262.857 187.143C262.164 188.798 261.316 190.415 260.469 191.994C260.469 191.994 251.148 210.012 258.62 218.828C259.005 219.213 259.39 219.598 259.776 219.983C259.814 220.022 259.853 220.06 259.891 220.099C260.122 220.33 260.353 220.599 260.584 220.83C262.01 222.486 263.897 223.448 265.9 224.141C268.596 225.104 271.407 224.988 274.18 224.757C275.374 224.642 276.568 224.449 277.724 224.18C281.19 223.333 284.387 221.831 287.314 219.791C287.584 219.598 287.892 219.483 288.239 219.29C288.624 219.598 289.009 219.868 289.317 220.176C291.089 221.87 293.13 223.102 295.403 223.949C299.639 225.527 303.953 225.72 308.305 224.257C308.729 224.103 309.153 223.949 309.615 223.872C311.117 223.679 312.426 222.948 313.736 222.293C314.275 222.024 314.776 221.6 315.508 221.6C315.508 221.6 323.519 215.055 325.868 210.012C325.907 209.858 325.945 209.742 326.022 209.588C326.1 209.434 326.138 209.319 326.215 209.165C327.756 205.854 329.335 202.504 330.914 199.193C332.532 195.805 334.188 192.417 335.805 189.029C337.539 185.487 339.233 181.945 341.005 178.442C341.467 177.518 342.353 175.901 343.239 174.245C347.668 173.783 350.403 173.437 351.751 173.283C351.751 173.321 351.712 173.36 351.674 173.437C348.169 180.906 344.857 188.529 341.044 195.844C340.312 197.268 339.773 198.77 339.195 200.233C339.156 200.387 339.079 200.502 339.041 200.656C339.041 200.772 337.423 215.363 343.932 221.1C345.665 222.37 347.399 223.564 349.44 224.334C351.866 225.219 354.254 226.143 357.105 226.105C357.028 226.605 357.028 226.913 356.951 227.144C356.681 227.837 356.334 228.492 356.065 229.185C355.025 231.726 353.677 234.113 352.136 236.384C350.21 239.233 348.092 241.89 345.82 244.469C344.857 245.586 343.778 246.625 342.623 247.549C341.929 248.127 341.198 248.704 340.504 249.282C338.502 250.899 336.345 252.323 334.034 253.44C330.991 254.941 327.756 255.827 324.328 256.019C322.672 256.096 321.516 255.673 320.784 254.056C319.86 252.092 318.281 251.361 316.162 251.669C313.967 252.015 312.234 253.093 311.078 255.057C310.501 256.058 310.193 257.174 309.923 258.252C309.422 260.37 309.73 262.333 310.847 264.181C312.696 267.223 315.469 269.032 319.013 269.571C321.401 269.956 323.789 269.956 326.177 269.533C329.027 269.032 331.877 268.301 334.65 267.492C335.728 267.184 336.845 266.876 337.924 266.453C342.623 264.72 346.859 262.141 350.595 258.791C351.096 258.329 351.635 257.906 352.213 257.521C354.062 256.327 355.602 254.787 356.912 253.055C358.414 251.053 359.839 248.935 361.072 246.779C363.267 243.045 365.424 239.272 367.427 235.46C369.353 231.764 371.586 228.261 373.243 224.411C373.397 224.026 373.743 223.679 374.013 223.294C374.321 223.371 374.514 223.41 374.745 223.487C378.866 225.027 382.987 225.566 387.262 224.141C390.19 223.179 393.117 222.216 395.851 220.792C397.045 220.176 398.201 219.406 399.433 218.674C399.703 218.905 399.973 219.098 400.204 219.329C402.823 221.716 405.788 223.487 409.139 224.526C410.718 225.027 412.298 225.527 413.992 225.527C414.3 225.527 414.57 225.72 414.994 225.874C414.454 227.106 413.915 228.261 413.453 229.416C412.529 231.649 411.296 233.689 409.987 235.691C408.022 238.733 405.788 241.505 403.362 244.2C402.669 244.97 401.975 245.74 401.166 246.356C399.087 248.088 396.968 249.821 394.619 251.322C390.883 253.709 386.877 255.172 382.448 255.442C381.947 255.48 381.408 255.519 380.907 255.48C379.983 255.403 379.29 254.98 378.866 254.133C378.75 253.863 378.635 253.632 378.481 253.363C377.479 251.63 375.862 250.783 373.897 251.13C371.664 251.515 369.853 252.631 368.736 254.71C368.082 255.942 367.696 257.251 367.465 258.599C367.196 260.177 367.465 261.717 368.236 263.103C370.084 266.453 372.935 268.532 376.748 269.071C379.482 269.456 382.217 269.456 384.913 268.878C385.876 268.686 386.839 268.532 387.763 268.262C390.421 267.531 393.078 266.876 395.659 265.991C400.358 264.374 404.517 261.756 408.215 258.445C408.754 257.944 409.332 257.444 409.948 257.059C411.874 255.827 413.414 254.21 414.724 252.439C416.226 250.437 417.613 248.319 418.884 246.163C421.041 242.544 423.043 238.81 425.085 235.114C426.702 232.149 428.32 229.223 429.861 226.22C430.246 225.45 430.746 225.142 431.555 225.142C433.443 225.065 435.33 224.95 437.179 224.796C440.606 224.488 443.88 223.448 447.116 222.37C449.735 221.485 452.084 220.06 454.125 218.174C455.666 216.749 457.091 215.171 458.478 213.554C460.404 211.359 461.867 208.857 463.331 206.316C464.563 204.16 465.102 201.888 465.025 199.424C465.102 197.923 464.602 196.768 463.485 195.882ZM306.302 113.762C307.535 111.991 309.499 109.142 312.889 110.566C316.278 111.991 314.314 118.382 312.696 123.194C311.078 128.007 303.606 145.601 289.895 152.724C289.933 152.724 305.07 115.533 306.302 113.762ZM138.644 181.406C137.874 183.408 136.911 185.372 135.986 187.335C134.292 190.993 132.481 194.612 130.864 198.346C129.978 200.348 129.054 202.273 128.052 204.198C126.396 207.317 124.008 209.704 120.811 211.205C119.579 211.783 118.269 212.206 116.844 212.091C115.188 212.168 113.878 211.59 112.877 210.204C112.492 209.665 112.299 209.088 112.453 208.433C112.838 206.778 113.147 205.122 114.032 203.582C114.918 202.119 115.573 200.541 116.266 198.962C120.58 189.53 124.932 180.097 129.208 170.626C130.671 167.354 132.867 164.582 135.332 162.041C136.988 160.347 138.991 159.153 141.34 158.614C142.457 158.345 143.612 158.383 144.729 158.46C145.346 158.499 145.769 158.807 146.077 159.346C146.809 160.693 146.886 162.079 146.386 163.465C146 164.466 145.538 165.467 145.115 166.468C142.842 171.396 140.608 176.324 138.644 181.406ZM245.448 176.786C244.023 179.751 242.521 182.715 241.096 185.718C238.399 191.301 235.626 196.883 233.007 202.504C231.89 204.891 230.311 206.855 228.154 208.318C227.114 209.011 226.074 209.704 224.957 210.281C223.34 211.167 221.568 211.205 219.796 210.897C218.102 210.589 217.062 209.55 216.638 207.894C216.369 206.778 216.446 205.661 216.985 204.583C218.487 201.503 219.95 198.423 221.453 195.343C224.38 189.337 227.307 183.331 230.234 177.364C230.542 176.709 230.927 176.055 231.274 175.362C233.855 175.516 236.243 175.67 238.631 175.785C241.018 175.901 243.406 175.631 245.717 175.439C245.987 176.016 245.64 176.363 245.448 176.786ZM251.379 163.465C246.796 165.198 240.171 165.506 237.552 164.12C237.629 163.927 237.668 163.696 237.783 163.542C239.67 161.001 241.981 159.076 245.178 158.383C246.488 158.114 247.797 158.152 249.107 158.268C249.762 158.306 250.262 158.653 250.647 159.23C251.533 160.539 251.88 161.964 251.379 163.465ZM327.062 176.055C325.945 178.365 324.79 180.675 323.673 182.985C320.592 189.299 317.549 195.613 314.468 201.927C314.16 202.581 313.813 203.274 313.505 203.929C311.849 207.394 309.076 209.55 305.494 210.666C303.491 211.282 301.411 211.09 299.485 210.127C298.33 209.55 297.829 208.587 298.099 207.317C298.368 206.008 298.869 204.814 299.447 203.621C301.642 199.193 303.837 194.727 306.033 190.3C308.19 185.911 310.347 181.483 312.542 177.094C312.812 176.517 313.12 176.016 313.505 175.323C315.123 175.323 316.625 175.362 318.088 175.323C319.167 175.285 320.245 175.208 321.324 175.092C322.98 174.938 324.597 174.784 326.254 174.669C326.6 174.63 326.908 174.707 327.216 174.707C327.563 175.246 327.255 175.67 327.062 176.055ZM332.493 163.003C331.992 163.196 331.53 163.388 331.03 163.504C328.719 163.889 326.446 164.389 324.097 164.389C322.672 164.389 321.247 164.389 319.821 164.389C319.629 164.389 319.398 164.312 318.974 164.235C319.205 163.773 319.282 163.542 319.436 163.311C320.515 161.733 321.901 160.501 323.557 159.5C326.022 158.037 328.565 158.152 331.145 159.115C332.416 159.615 333.148 160.578 333.186 161.964C333.186 162.426 332.994 162.811 332.493 163.003ZM368.852 200.117C368.236 201.388 367.581 202.658 367.003 203.967C365.809 206.662 363.845 208.703 361.611 210.512C359.647 212.091 357.297 212.591 354.832 212.283C353.446 212.091 352.252 211.321 351.366 210.281C350.865 209.704 350.75 208.934 350.788 208.164C350.827 207.355 350.865 206.547 351.135 205.815C351.597 204.429 352.059 203.005 352.752 201.696C354.331 198.616 355.795 195.459 357.297 192.302C361.226 183.947 365.154 175.593 369.121 167.2C369.815 165.775 370.508 164.312 371.317 162.965C372.665 160.77 374.475 159.038 376.979 158.191C378.365 157.729 379.867 157.498 381.369 157.421C382.255 157.575 383.18 157.652 384.027 157.921C385.414 158.383 386.338 159.731 386.261 161.232C386.184 162.349 385.991 163.465 385.683 164.582C384.99 166.892 383.796 168.971 382.756 171.127C378.096 180.752 373.474 190.454 368.852 200.117Z" fill="#EB5A95"/>
</svg>
