<svg width="1130" height="614" viewBox="0 0 1130 614" fill="none" xmlns="http://www.w3.org/2000/svg">
<path d="M596.2 130.6C596.2 131.3 596.4 131.9 596.9 132.4C597.4 132.9 598 133.2 598.7 133.2L729.5 133.6C729.8 133.6 730.1 133.5 730.4 133.4C730.7 133.3 733.1 132.2 735.8 129.8C737.7 128.1 739.6 125.8 740.9 122.6C743.3 116.6 742.7 109.6 739.1 101.7C732.4 86.8997 723.4 77.0997 713.8 70.7997C713 70.0997 712.1 69.3997 710.9 68.9997C683.5 53.0997 652.2 63.3997 651.6 63.5997C598.2 71.2997 596.2 129.9 596.2 130.6ZM732.3 126.1C732.1 126.3 731.8 126.5 731.6 126.7C731.2 123.9 730.6 120 729.3 115.3C730.3 115.8 731.5 116.2 732.8 116.5C734.5 116.9 735.4 117.5 735.7 118.3C736.3 120.2 734.1 124 732.3 126.1ZM729.6 103.9C729.9 103.5 731.2 101.1 731.8 98.0997C732.7 99.7997 733.7 101.6 734.5 103.5C736 106.9 736.9 110 737.2 112.9C736.3 112.4 735.2 111.9 733.8 111.6C731.4 111 729.8 110.1 729.2 108.7C728.4 107 729.3 104.6 729.6 103.9ZM726.7 93.7997C727.9 95.9997 726 99.9997 725.2 101.4C725.2 101.5 725 101.8 724.8 102.2C723.2 98.4997 721.3 94.7997 719 91.0997C719.7 91.2997 720.4 91.3997 721.3 91.3997C723.3 91.6997 725.9 92.1997 726.7 93.7997ZM716.2 78.5997C719 80.9997 721.8 83.7997 724.4 86.9997C723.5 86.7997 722.6 86.5997 721.6 86.5997C719.1 86.3997 717.4 85.6997 716.5 84.3997C715.6 82.6997 715.8 80.2997 716.2 78.5997ZM709.1 73.4997C710.5 73.9997 711.3 75.2997 711.7 75.9997C711.4 77.0997 710.9 78.7997 710.8 80.6997C708.6 78.3997 706.2 76.1997 703.5 74.1997C705.8 73.2997 707.7 72.9997 709.1 73.4997ZM701.7 69.5997C700.7 69.9997 699.7 70.4997 698.7 71.1997C694.6 68.7997 689.9 66.6997 684.7 65.2997C690.2 65.8997 696 67.1997 701.7 69.5997ZM660.2 67.5997C661.5 67.4997 662.9 67.4997 664.2 67.4997C688.9 67.4997 707 78.0997 717.9 98.9997C724.2 111 726.2 123.2 726.8 128.5L601.4 128.2L609.2 100.1C619.1 79.4997 636.3 68.6997 660.2 67.5997Z" fill="black"/>
<path d="M753.3 128.9C753.3 130.3 754.4 131.4 755.8 131.4H798.6C800 131.4 801.1 130.3 801.1 128.9C801.1 127.5 800 126.4 798.6 126.4H755.8C754.4 126.4 753.3 127.5 753.3 128.9Z" fill="black"/>
<path d="M777.7 101.2C777.3 99.8999 776 99.0999 774.6 99.3999L752.1 105.4C750.8 105.8 750 107.1 750.3 108.5C750.6 109.6 751.6 110.4 752.7 110.4C752.9 110.4 753.1 110.4 753.4 110.3L775.9 104.3C777.2 104 778 102.6 777.7 101.2Z" fill="black"/>
<path d="M728.6 71.6C729.1 72.1 729.7 72.3 730.4 72.3C731 72.3 731.7 72.1 732.2 71.6L748.7 55.1C749.7 54.1 749.7 52.5 748.7 51.5C747.7 50.5 746.1 50.5 745.1 51.5L728.6 68C727.6 69.1 727.6 70.7 728.6 71.6Z" fill="black"/>
<path d="M691.4 50.5C691.6 50.6 691.8 50.6 692.1 50.6C693.2 50.6 694.2 49.9 694.5 48.7L700.5 26.2C700.8 24.9 700.1 23.5 698.7 23.1C697.3 22.7 696 23.5 695.6 24.9L689.6 47.4C689.2 48.7 690 50.1 691.4 50.5Z" fill="black"/>
<path d="M645.5 48.9999C645.8 50.0999 646.8 50.8999 647.9 50.8999C648.1 50.8999 648.3 50.8999 648.6 50.7999C649.9 50.3999 650.7 49.0999 650.4 47.6999L644.4 25.1999C644.1 23.8999 642.7 23.0999 641.3 23.3999C640 23.7999 639.2 25.0999 639.5 26.4999L645.5 48.9999Z" fill="black"/>
<path d="M608.1 72.3998C608.6 72.8998 609.2 73.0998 609.9 73.0998C610.5 73.0998 611.2 72.8998 611.7 72.3998C612.7 71.3998 612.7 69.7998 611.7 68.7998L595.2 52.2998C594.2 51.2998 592.6 51.2998 591.6 52.2998C590.6 53.2998 590.6 54.8998 591.6 55.8998L608.1 72.3998Z" fill="black"/>
<path d="M566.2 100.6C564.9 100.2 563.5 101 563.1 102.4C562.7 103.7 563.5 105.1 564.9 105.5L587.4 111.5C587.6 111.6 587.8 111.6 588.1 111.6C589.2 111.6 590.2 110.9 590.5 109.7C590.9 108.4 590.1 107 588.7 106.6L566.2 100.6Z" fill="black"/>
<path d="M741.4 87.7998C741.9 88.5998 742.7 89.0998 743.6 89.0998C744 89.0998 744.5 88.9998 744.9 88.7998L782 67.3998C783.2 66.6998 783.6 65.1998 782.9 63.9998C782.2 62.7998 780.7 62.3998 779.5 63.0998L742.3 84.2998C741.1 84.9998 740.7 86.5998 741.4 87.7998Z" fill="black"/>
<path d="M710.5 58.0998C710.9 58.2998 711.3 58.3998 711.8 58.3998C712.7 58.3998 713.5 57.8998 714 57.0998L735.4 19.9998C736.1 18.7998 735.7 17.2998 734.5 16.5998C733.3 15.8998 731.8 16.2998 731.1 17.4998L709.7 54.5998C708.9 55.8998 709.3 57.3998 710.5 58.0998Z" fill="black"/>
<path d="M668.9 47.8C670.3 47.8 671.4 46.7 671.4 45.3V2.5C671.4 1.1 670.3 0 668.9 0C667.5 0 666.4 1.1 666.4 2.5V45.3C666.4 46.7 667.5 47.8 668.9 47.8Z" fill="black"/>
<path d="M624.3 58.7996C624.8 59.5996 625.6 60.0996 626.5 60.0996C626.9 60.0996 627.3 59.9996 627.8 59.7996C629 59.0996 629.4 57.5996 628.7 56.3996L607.3 19.2996C606.6 18.0996 605.1 17.6996 603.9 18.3996C602.7 19.0996 602.3 20.5996 603 21.7996L624.3 58.7996Z" fill="black"/>
<path d="M557.6 70.0999L594.7 91.4999C595.1 91.6999 595.5 91.7999 596 91.7999C596.9 91.7999 597.7 91.2999 598.2 90.4999C598.9 89.2999 598.5 87.7999 597.3 87.0999L560.2 65.6999C559 64.9999 557.5 65.3999 556.8 66.5999C556 67.8999 556.4 69.3999 557.6 70.0999Z" fill="black"/>
<path d="M542.5 134.7H585.3C586.7 134.7 587.8 133.6 587.8 132.2C587.8 130.8 586.7 129.7 585.3 129.7H542.5C541.1 129.7 540 130.8 540 132.2C540 133.6 541.1 134.7 542.5 134.7Z" fill="black"/>
<path d="M267.468 202.284C274.568 200.484 327.768 213.584 327.768 213.584C438.368 229.384 441.468 159.784 441.468 159.784C441.468 159.784 443.668 142.584 431.368 137.784C419.068 132.984 412.368 141.584 412.368 141.584C412.368 141.584 383.268 205.884 256.368 158.484C133.968 112.784 80.3684 145.884 80.3684 145.884C80.3684 145.884 58.3684 164.384 71.1684 175.484C83.9684 186.484 109.768 171.284 109.768 171.284C109.768 171.284 127.668 162.284 159.268 165.184C208.668 169.784 228.668 188.484 228.668 188.484C211.268 218.584 210.168 222.184 189.268 266.684C189.268 266.684 150.068 357.384 116.668 419.384C85.6684 476.984 49.6684 466.084 30.6684 448.484C11.6684 430.884 2.46842 448.884 2.46842 448.884C-11.7316 466.684 39.9684 494.684 39.9684 494.684C111.768 521.584 164.668 400.784 164.668 400.784C164.668 400.784 208.168 302.884 229.468 263.284C251.468 222.484 267.468 202.284 267.468 202.284Z" fill="black"/>
<path d="M676.069 241.085C679.969 232.085 684.069 223.185 688.069 214.285C690.269 209.385 692.369 204.485 694.569 199.685C694.569 199.685 685.869 219.085 675.269 242.585C675.569 242.185 675.869 241.685 676.069 241.085Z" fill="black"/>
<path d="M656.969 283.485C657.169 283.085 657.269 282.685 657.469 282.185C647.069 305.485 638.368 324.785 638.168 325.285C640.568 319.985 642.968 314.685 645.268 309.385C649.268 300.785 653.169 292.185 656.969 283.485Z" fill="black"/>
<path d="M1125.37 421.084C1123.97 419.984 1122.37 419.084 1121.17 417.884C1115.97 412.984 1104.97 413.584 1100.47 420.884C1099.77 421.984 1098.97 423.085 1098.17 424.185C1095.37 428.185 1092.57 432.185 1089.67 436.185C1085.67 441.785 1080.87 446.585 1075.57 450.984C1070.97 454.784 1065.87 457.884 1060.17 459.584C1058.97 459.984 1057.67 460.585 1056.07 459.685C1056.37 458.785 1056.57 457.784 1056.87 456.884C1061.27 447.284 1065.67 437.784 1070.07 428.285C1080.87 405.184 1091.57 382.085 1102.37 358.985C1105.87 351.485 1109.57 344.084 1113.17 336.584C1115.77 331.084 1118.67 325.785 1120.77 319.985C1122.37 315.685 1123.17 311.385 1122.77 306.885C1122.17 298.285 1116.67 293.785 1109.07 291.384C1108.17 291.084 1107.07 291.385 1106.07 291.485C1101.57 292.285 1097.77 294.484 1094.17 297.184C1093.37 297.784 1092.67 298.685 1092.17 299.485C1088.87 305.285 1085.67 311.085 1082.47 316.985C1080.07 321.385 1078.67 326.285 1076.57 330.885C1073.27 338.185 1070.37 345.584 1066.57 352.684C1061.57 362.084 1057.07 371.785 1052.57 381.485C1043.37 400.785 1034.27 419.984 1025.27 439.384C1022.27 445.884 1017.97 451.184 1012.77 455.884C1009.37 458.984 1005.47 460.984 1001.07 461.984C995.769 463.185 990.769 462.584 986.269 459.284C983.969 457.584 982.669 455.484 982.469 452.584C982.469 451.584 982.469 450.484 982.569 449.484C982.969 444.984 984.569 440.784 986.369 436.784C991.469 425.884 996.869 415.185 1001.97 404.385C1012.07 383.085 1022.07 361.785 1032.17 340.485C1035.97 332.585 1039.17 324.484 1041.97 316.184C1043.27 312.484 1043.37 308.885 1042.27 305.385C1040.37 298.985 1035.07 292.584 1025.77 293.384C1022.97 293.584 1020.67 294.584 1018.67 296.584C1015.47 299.884 1012.87 303.684 1010.77 307.785C1007.17 314.885 1003.57 322.085 1000.17 329.285C990.269 350.385 980.569 371.484 970.669 392.584C967.369 399.584 964.069 406.484 960.569 413.384C957.169 420.284 953.869 427.284 951.369 434.584C949.669 439.484 947.269 444.085 944.969 448.685C942.169 454.484 937.169 457.885 931.369 460.185C926.969 461.885 922.369 461.484 917.769 460.984C913.269 460.585 910.569 457.984 909.069 453.884C909.669 452.584 910.069 451.284 910.669 450.084C913.669 443.484 916.769 436.884 919.869 430.284C930.869 406.784 941.769 383.285 952.769 359.785C955.669 353.585 958.369 347.385 961.469 341.285C964.569 335.184 967.769 329.285 970.369 322.885C972.069 318.585 973.269 314.185 973.169 309.485C973.069 303.285 970.269 298.384 966.269 294.084C964.169 291.784 961.069 290.684 958.169 289.584C955.969 288.784 953.869 288.684 951.569 289.184C948.569 289.784 945.969 291.084 943.769 293.284C942.469 294.584 941.469 296.385 939.569 296.985C936.469 295.585 933.569 294.185 930.569 292.884C921.169 288.584 911.269 287.584 901.069 288.884C888.769 290.484 878.069 295.385 868.769 303.485C864.169 307.485 860.069 311.885 857.169 317.285C855.769 319.885 854.369 322.584 852.969 325.184C842.369 332.184 829.369 333.385 821.669 333.285C821.869 328.484 821.869 323.685 821.469 320.385C821.069 319.085 819.569 313.984 819.069 312.785C816.069 304.984 810.569 299.185 803.669 294.985C793.969 289.185 783.369 286.685 772.069 287.884C765.469 288.584 758.869 290.484 752.969 293.384C746.369 296.584 739.869 300.285 734.269 305.285C732.969 306.484 731.669 307.684 730.169 308.684C722.369 314.285 717.269 322.184 713.069 330.584C706.469 343.784 700.169 357.285 693.769 370.684C685.069 388.684 676.469 406.785 667.869 424.785C665.369 430.085 662.669 435.484 660.569 440.984C659.069 444.784 657.269 448.184 654.369 451.084C650.269 454.984 646.169 458.684 640.869 461.084C636.069 463.184 631.369 463.084 626.669 461.084C625.469 460.584 624.769 459.784 624.269 458.584C623.169 455.684 622.269 452.685 622.369 449.484C622.569 444.784 623.669 440.385 625.669 436.185C628.769 429.685 632.069 423.185 635.269 416.685C641.369 404.185 647.369 391.584 653.469 379.084C657.469 370.784 661.669 362.585 665.369 354.285C666.769 351.184 668.069 348.184 669.369 345.084C692.469 333.484 715.069 311.284 736.569 284.784C754.669 262.484 761.169 240.785 764.769 224.384C767.269 217.285 768.069 209.884 767.569 202.084C767.569 201.184 767.269 200.285 767.069 199.485C765.669 195.085 763.669 191.184 761.169 187.584C760.569 186.684 759.969 185.884 759.369 185.184C757.969 183.484 756.469 181.885 754.769 180.385C751.369 177.484 747.569 175.184 743.169 174.084C736.869 172.484 730.569 171.984 724.369 174.184C723.269 174.584 722.069 174.884 720.969 175.084C716.169 176.284 711.869 178.685 707.869 181.485C704.069 184.185 701.069 187.585 699.169 191.985C698.469 193.485 697.469 194.784 696.669 196.184C695.969 197.484 695.069 198.685 694.469 199.985C692.269 204.885 690.169 209.784 687.969 214.584C683.969 223.484 679.869 232.384 675.969 241.384C675.769 241.984 675.469 242.484 675.169 242.884C669.369 255.685 663.169 269.685 657.369 282.485C657.169 282.885 657.069 283.384 656.869 283.784C652.969 292.484 649.069 301.084 645.169 309.684C642.769 314.984 640.369 320.284 638.069 325.584C627.769 332.684 616.969 334.785 610.769 335.485C611.569 329.785 611.869 324.484 610.969 321.684C610.769 321.184 606.869 312.285 604.769 308.684C602.369 304.384 588.269 294.084 586.069 293.084C580.269 290.284 574.069 289.084 567.669 288.284C558.669 287.184 550.269 289.084 542.069 292.584C537.469 294.584 533.069 297.184 528.769 299.784C525.969 301.484 523.269 303.384 520.969 305.584C516.869 309.384 512.869 313.384 509.069 317.584C506.169 320.784 503.869 324.385 502.069 328.385C498.969 335.285 495.769 342.085 492.569 348.985C482.669 370.485 472.769 392.084 462.969 413.584C459.469 421.184 454.969 428.184 449.969 434.784C444.469 442.084 437.969 448.284 430.869 453.884C424.569 458.884 417.569 462.184 409.669 463.584C403.569 464.684 397.469 465.684 391.169 463.884C383.469 461.584 377.469 457.685 374.869 449.685C374.469 448.285 374.069 446.884 373.669 445.384C372.769 442.784 372.969 440.185 373.569 437.484C374.469 433.384 376.169 429.584 377.969 425.884C385.369 409.884 392.869 393.985 400.269 377.885C403.969 369.985 407.969 362.185 410.869 353.885C411.269 352.685 412.069 351.485 412.769 350.385C415.669 345.885 418.569 341.385 421.469 336.985C423.569 333.685 426.169 330.885 429.069 328.285C431.469 326.184 433.969 324.585 436.969 323.485C440.369 322.185 443.669 322.584 446.869 324.084C448.269 324.684 448.869 325.684 448.869 327.184C448.969 330.184 448.169 333.085 447.069 335.785C445.469 339.785 443.869 343.785 442.269 347.785C439.469 354.984 439.869 361.984 443.669 368.785C445.269 371.684 447.369 374.385 450.569 375.385C455.769 377.085 461.169 377.384 465.869 373.684C468.469 371.684 470.669 369.284 473.069 367.084C475.769 364.584 477.569 361.585 478.969 358.285C481.269 352.984 482.969 347.485 484.469 341.885C484.769 340.585 485.169 339.285 485.169 337.985C485.169 333.685 485.169 329.384 485.069 325.084C484.969 322.584 484.769 319.984 484.169 317.584C482.469 311.584 479.869 305.884 475.769 301.084C470.969 295.284 464.769 291.684 457.469 290.084C451.069 288.684 444.569 288.084 438.069 288.084C426.869 288.084 416.369 290.885 407.369 297.985C404.369 300.385 401.369 302.885 398.569 305.485C396.969 306.985 395.669 308.885 394.569 310.785C392.769 313.885 391.269 317.084 389.569 320.184C384.169 330.084 379.269 340.184 374.869 350.584C373.469 353.984 371.869 357.384 370.269 360.684C365.369 370.984 360.369 381.185 355.369 391.485C350.069 402.285 345.269 413.285 339.569 423.785C337.169 428.184 334.869 432.684 331.969 436.784C327.369 443.284 322.269 449.584 317.269 455.784C315.569 457.784 313.469 459.484 311.369 461.185C307.569 464.285 303.269 464.585 298.769 463.484C293.769 462.384 290.969 458.284 291.769 453.284C292.269 450.484 293.069 447.785 293.869 445.185C295.269 441.085 297.069 437.184 298.869 433.284C307.269 414.784 315.669 396.285 323.969 377.785C331.569 360.885 338.869 343.885 346.469 326.985C349.069 321.385 350.669 315.584 351.569 309.584C351.969 307.184 351.869 304.484 351.469 302.084C350.669 297.784 348.269 294.484 343.669 293.284C342.269 292.884 340.869 292.284 339.369 292.084C332.269 290.784 325.869 292.284 320.469 297.284C320.269 297.484 319.969 297.484 319.669 297.584C319.569 297.584 319.369 297.585 319.269 297.485C318.869 297.285 318.469 297.084 318.069 296.884C312.969 293.584 307.569 291.085 301.369 289.985C290.869 288.185 280.769 288.984 270.869 292.784C266.569 294.484 262.369 296.185 258.169 297.985C256.569 298.685 254.869 299.484 253.469 300.384C244.169 306.384 237.269 314.485 233.169 324.985C230.869 330.785 228.469 336.484 225.969 342.184C221.369 352.484 216.869 362.785 212.069 372.985C207.269 383.485 202.169 393.885 197.269 404.285C192.869 413.785 187.669 422.985 183.569 432.685C180.869 439.085 178.369 445.584 176.969 452.384C175.369 460.284 176.769 467.384 181.169 473.984C184.269 478.685 188.269 482.684 192.069 486.784C194.869 489.784 198.169 491.884 201.969 493.384C204.469 494.384 206.969 495.185 209.569 495.984C216.369 498.085 223.369 498.185 230.269 497.185C241.969 495.585 252.469 491.085 261.669 483.484C262.369 482.984 263.069 482.484 263.669 482.084C265.469 482.684 266.169 483.984 267.069 485.084C270.169 488.884 274.069 491.384 278.469 493.284C280.269 494.084 282.069 494.684 283.869 495.284C300.569 500.484 316.369 498.484 331.069 488.884C336.769 485.184 342.169 481.085 347.769 477.185C347.769 477.185 347.969 477.184 348.069 477.284C348.969 478.084 349.769 478.885 350.669 479.685C359.469 488.185 369.569 494.484 381.869 496.584C383.569 496.884 385.369 497.084 387.169 497.284C392.469 497.784 397.769 497.684 403.169 497.284C415.369 496.584 427.169 494.085 438.569 489.685C442.469 488.185 446.169 486.284 449.569 483.984C451.569 482.685 453.569 481.484 455.669 480.584C457.669 481.384 458.869 482.984 460.169 484.284C463.669 487.784 467.369 490.884 471.869 493.084C479.669 496.884 487.869 498.285 496.469 497.185C497.969 496.984 499.469 496.984 500.869 496.884C507.369 496.784 513.469 495.285 519.169 492.185C519.869 491.785 520.469 491.484 521.169 491.185C521.569 490.984 521.969 490.784 522.369 490.784C522.369 490.784 548.469 472.784 560.569 453.284C560.769 452.984 560.969 452.584 561.169 452.284C561.369 451.984 561.569 451.584 561.769 451.284C564.869 446.084 568.169 440.884 570.969 435.484C577.569 422.884 584.069 410.185 589.069 396.885C591.569 390.385 594.369 383.984 597.069 377.584C598.469 374.184 599.869 370.885 601.269 367.485C610.069 366.485 616.669 364.185 621.369 361.985C618.569 368.285 615.869 374.584 612.669 380.684C609.669 386.484 607.069 392.485 604.469 398.385C602.669 402.685 600.469 406.885 598.269 410.985C598.269 410.985 574.069 457.785 593.469 480.685C594.469 481.685 595.469 482.685 596.469 483.685C596.569 483.785 596.669 483.884 596.769 483.984C597.369 484.585 597.969 485.284 598.569 485.884C602.269 490.184 607.169 492.685 612.369 494.484C619.369 496.984 626.669 496.684 633.869 496.084C636.969 495.784 640.069 495.284 643.069 494.584C652.069 492.384 660.369 488.484 667.969 483.185C668.669 482.685 669.469 482.384 670.369 481.884C671.369 482.684 672.369 483.385 673.169 484.185C677.769 488.585 683.069 491.784 688.969 493.984C699.969 498.085 711.169 498.584 722.469 494.784C723.569 494.384 724.669 493.984 725.869 493.784C729.769 493.284 733.169 491.385 736.569 489.685C737.969 488.984 739.269 487.884 741.169 487.884C741.169 487.884 761.969 470.884 768.069 457.784C768.169 457.384 768.269 457.085 768.469 456.685C768.669 456.285 768.769 455.984 768.969 455.584C772.969 446.984 777.069 438.285 781.169 429.685C785.369 420.885 789.669 412.085 793.869 403.285C798.369 394.085 802.769 384.885 807.369 375.785C808.569 373.385 810.869 369.185 813.169 364.885C824.669 363.685 831.769 362.785 835.269 362.385C835.269 362.485 835.169 362.585 835.069 362.785C825.969 382.184 817.369 401.985 807.469 420.985C805.569 424.685 804.169 428.584 802.669 432.384C802.569 432.784 802.369 433.085 802.269 433.484C802.269 433.784 798.069 471.684 814.969 486.584C819.469 489.884 823.969 492.984 829.269 494.984C835.569 497.284 841.769 499.684 849.169 499.584C848.969 500.884 848.969 501.684 848.769 502.284C848.069 504.084 847.169 505.784 846.469 507.584C843.769 514.184 840.269 520.384 836.269 526.284C831.269 533.684 825.769 540.584 819.869 547.284C817.369 550.184 814.569 552.884 811.569 555.284C809.769 556.784 807.869 558.284 806.069 559.784C800.869 563.984 795.269 567.684 789.269 570.584C781.369 574.484 772.969 576.784 764.069 577.284C759.769 577.484 756.769 576.385 754.869 572.185C752.469 567.085 748.369 565.185 742.869 565.984C737.169 566.884 732.669 569.684 729.669 574.784C728.169 577.384 727.369 580.284 726.669 583.084C725.369 588.584 726.169 593.685 729.069 598.484C733.869 606.384 741.069 611.085 750.269 612.484C756.469 613.484 762.669 613.484 768.869 612.384C776.269 611.084 783.669 609.184 790.869 607.084C793.669 606.284 796.569 605.484 799.369 604.384C811.569 599.884 822.569 593.185 832.269 584.484C833.569 583.284 834.969 582.185 836.469 581.185C841.269 578.085 845.269 574.084 848.669 569.584C852.569 564.384 856.269 558.884 859.469 553.284C865.169 543.584 870.769 533.784 875.969 523.884C880.969 514.284 886.769 505.185 891.069 495.185C891.469 494.185 892.369 493.284 893.069 492.284C893.869 492.484 894.369 492.584 894.969 492.784C905.669 496.784 916.369 498.185 927.469 494.484C935.069 491.984 942.669 489.484 949.769 485.784C952.869 484.184 955.869 482.184 959.069 480.284C959.769 480.884 960.469 481.384 961.069 481.984C967.869 488.185 975.569 492.784 984.269 495.484C988.369 496.784 992.469 498.084 996.869 498.084C997.669 498.084 998.369 498.585 999.469 498.984C998.069 502.185 996.669 505.185 995.469 508.185C993.069 513.984 989.869 519.284 986.469 524.484C981.369 532.384 975.569 539.584 969.269 546.584C967.469 548.584 965.669 550.585 963.569 552.185C958.169 556.685 952.669 561.184 946.569 565.084C936.869 571.284 926.469 575.084 914.969 575.784C913.669 575.884 912.269 575.984 910.969 575.884C908.569 575.684 906.769 574.584 905.669 572.384C905.369 571.684 905.069 571.084 904.669 570.384C902.069 565.884 897.869 563.684 892.769 564.584C886.969 565.584 882.269 568.484 879.369 573.884C877.669 577.084 876.669 580.484 876.069 583.984C875.369 588.085 876.069 592.085 878.069 595.685C882.869 604.385 890.269 609.785 900.169 611.185C907.269 612.185 914.369 612.185 921.369 610.685C923.869 610.185 926.369 609.784 928.769 609.084C935.669 607.184 942.569 605.484 949.269 603.185C961.469 598.984 972.269 592.184 981.869 583.584C983.269 582.284 984.769 580.984 986.369 579.984C991.369 576.784 995.369 572.585 998.769 567.984C1002.67 562.784 1006.27 557.285 1009.57 551.685C1015.17 542.285 1020.37 532.585 1025.67 522.984C1029.87 515.284 1034.07 507.684 1038.07 499.884C1039.07 497.884 1040.37 497.084 1042.47 497.084C1047.37 496.884 1052.27 496.585 1057.07 496.185C1065.97 495.385 1074.47 492.684 1082.87 489.884C1089.67 487.584 1095.77 483.884 1101.07 478.984C1105.07 475.284 1108.77 471.185 1112.37 466.984C1117.37 461.284 1121.17 454.785 1124.97 448.185C1128.17 442.585 1129.57 436.684 1129.37 430.284C1129.57 426.384 1128.27 423.384 1125.37 421.084ZM717.269 207.784C720.469 203.184 725.569 195.785 734.369 199.485C743.169 203.185 738.069 219.784 733.869 232.284C729.669 244.784 710.269 290.485 674.669 308.985C674.769 308.985 714.069 212.384 717.269 207.784ZM281.969 383.485C279.969 388.685 277.469 393.785 275.069 398.885C270.669 408.385 265.969 417.785 261.769 427.485C259.469 432.685 257.069 437.685 254.469 442.685C250.169 450.785 243.969 456.984 235.669 460.884C232.469 462.384 229.069 463.484 225.369 463.185C221.069 463.385 217.669 461.884 215.069 458.284C214.069 456.884 213.569 455.385 213.969 453.685C214.969 449.385 215.769 445.084 218.069 441.084C220.369 437.284 222.069 433.184 223.869 429.084C235.069 404.584 246.369 380.085 257.469 355.485C261.269 346.985 266.969 339.785 273.369 333.184C277.669 328.785 282.869 325.684 288.969 324.285C291.869 323.585 294.869 323.685 297.769 323.885C299.369 323.985 300.469 324.785 301.269 326.184C303.169 329.684 303.369 333.285 302.069 336.885C301.069 339.485 299.869 342.084 298.769 344.684C292.869 357.484 287.069 370.285 281.969 383.485ZM559.269 371.485C555.569 379.185 551.669 386.884 547.969 394.684C540.969 409.184 533.769 423.684 526.969 438.284C524.069 444.484 519.969 449.584 514.369 453.384C511.669 455.184 508.969 456.984 506.069 458.484C501.869 460.784 497.269 460.884 492.669 460.084C488.269 459.284 485.569 456.584 484.469 452.284C483.769 449.384 483.969 446.484 485.369 443.685C489.269 435.685 493.069 427.685 496.969 419.685C504.569 404.085 512.169 388.485 519.769 372.985C520.569 371.285 521.569 369.585 522.469 367.785C529.169 368.184 535.369 368.585 541.569 368.885C547.769 369.185 553.969 368.485 559.969 367.985C560.669 369.485 559.769 370.385 559.269 371.485ZM574.669 336.885C562.769 341.385 545.569 342.184 538.769 338.584C538.969 338.084 539.069 337.484 539.369 337.084C544.269 330.484 550.269 325.484 558.569 323.684C561.969 322.984 565.369 323.085 568.769 323.385C570.469 323.485 571.769 324.385 572.769 325.885C575.069 329.285 575.969 332.985 574.669 336.885ZM771.169 369.584C768.269 375.584 765.269 381.584 762.369 387.584C754.369 403.984 746.469 420.384 738.469 436.784C737.669 438.484 736.769 440.284 735.969 441.984C731.669 450.984 724.469 456.585 715.169 459.484C709.969 461.085 704.569 460.584 699.569 458.084C696.569 456.584 695.269 454.084 695.969 450.784C696.669 447.384 697.969 444.285 699.469 441.185C705.169 429.685 710.869 418.084 716.569 406.584C722.169 395.184 727.769 383.684 733.469 372.285C734.169 370.785 734.969 369.484 735.969 367.684C740.169 367.684 744.069 367.785 747.869 367.684C750.669 367.584 753.469 367.384 756.269 367.084C760.569 366.684 764.769 366.285 769.069 365.985C769.969 365.885 770.769 366.084 771.569 366.084C772.469 367.484 771.669 368.584 771.169 369.584ZM785.269 335.684C783.969 336.184 782.769 336.685 781.469 336.985C775.469 337.985 769.569 339.285 763.469 339.285C759.769 339.285 756.069 339.285 752.369 339.285C751.869 339.285 751.269 339.085 750.169 338.885C750.769 337.685 750.969 337.085 751.369 336.485C754.169 332.385 757.769 329.184 762.069 326.584C768.469 322.784 775.069 323.084 781.769 325.584C785.069 326.884 786.969 329.385 787.069 332.985C787.069 334.185 786.569 335.184 785.269 335.684ZM879.669 432.084C878.069 435.384 876.369 438.684 874.869 442.084C871.769 449.084 866.669 454.384 860.869 459.084C855.769 463.184 849.669 464.484 843.269 463.685C839.669 463.185 836.569 461.185 834.269 458.484C832.969 456.984 832.669 454.984 832.769 452.984C832.869 450.884 832.969 448.784 833.669 446.884C834.869 443.284 836.069 439.585 837.869 436.185C841.969 428.185 845.769 419.984 849.669 411.785C859.869 390.085 870.069 368.384 880.369 346.584C882.169 342.884 883.969 339.084 886.069 335.584C889.569 329.884 894.269 325.384 900.769 323.184C904.369 321.984 908.269 321.384 912.169 321.184C914.469 321.584 916.869 321.785 919.069 322.485C922.669 323.685 925.069 327.184 924.869 331.084C924.669 333.984 924.169 336.885 923.369 339.785C921.569 345.785 918.469 351.184 915.769 356.785C903.669 381.785 891.669 406.984 879.669 432.084Z" fill="black"/>
<path d="M596.2 130.6C596.2 131.3 596.4 131.9 596.9 132.4C597.4 132.9 598 133.2 598.7 133.2L729.5 133.6C729.8 133.6 730.1 133.5 730.4 133.4C730.7 133.3 733.1 132.2 735.8 129.8C737.7 128.1 739.6 125.8 740.9 122.6C743.3 116.6 742.7 109.6 739.1 101.7C732.4 86.8997 723.4 77.0997 713.8 70.7997C713 70.0997 712.1 69.3997 710.9 68.9997C683.5 53.0997 652.2 63.3997 651.6 63.5997C598.2 71.2997 596.2 129.9 596.2 130.6ZM732.3 126.1C732.1 126.3 731.8 126.5 731.6 126.7C731.2 123.9 730.6 120 729.3 115.3C730.3 115.8 731.5 116.2 732.8 116.5C734.5 116.9 735.4 117.5 735.7 118.3C736.3 120.2 734.1 124 732.3 126.1ZM729.6 103.9C729.9 103.5 731.2 101.1 731.8 98.0997C732.7 99.7997 733.7 101.6 734.5 103.5C736 106.9 736.9 110 737.2 112.9C736.3 112.4 735.2 111.9 733.8 111.6C731.4 111 729.8 110.1 729.2 108.7C728.4 107 729.3 104.6 729.6 103.9ZM726.7 93.7997C727.9 95.9997 726 99.9997 725.2 101.4C725.2 101.5 725 101.8 724.8 102.2C723.2 98.4997 721.3 94.7997 719 91.0997C719.7 91.2997 720.4 91.3997 721.3 91.3997C723.3 91.6997 725.9 92.1997 726.7 93.7997ZM716.2 78.5997C719 80.9997 721.8 83.7997 724.4 86.9997C723.5 86.7997 722.6 86.5997 721.6 86.5997C719.1 86.3997 717.4 85.6997 716.5 84.3997C715.6 82.6997 715.8 80.2997 716.2 78.5997ZM709.1 73.4997C710.5 73.9997 711.3 75.2997 711.7 75.9997C711.4 77.0997 710.9 78.7997 710.8 80.6997C708.6 78.3997 706.2 76.1997 703.5 74.1997C705.8 73.2997 707.7 72.9997 709.1 73.4997ZM701.7 69.5997C700.7 69.9997 699.7 70.4997 698.7 71.1997C694.6 68.7997 689.9 66.6997 684.7 65.2997C690.2 65.8997 696 67.1997 701.7 69.5997ZM660.2 67.5997C661.5 67.4997 662.9 67.4997 664.2 67.4997C688.9 67.4997 707 78.0997 717.9 98.9997C724.2 111 726.2 123.2 726.8 128.5L601.4 128.2L609.2 100.1C619.1 79.4997 636.3 68.6997 660.2 67.5997Z" fill="black"/>
<path d="M753.3 128.9C753.3 130.3 754.4 131.4 755.8 131.4H798.6C800 131.4 801.1 130.3 801.1 128.9C801.1 127.5 800 126.4 798.6 126.4H755.8C754.4 126.4 753.3 127.5 753.3 128.9Z" fill="black"/>
<path d="M777.7 101.2C777.3 99.8999 776 99.0999 774.6 99.3999L752.1 105.4C750.8 105.8 750 107.1 750.3 108.5C750.6 109.6 751.6 110.4 752.7 110.4C752.9 110.4 753.1 110.4 753.4 110.3L775.9 104.3C777.2 104 778 102.6 777.7 101.2Z" fill="black"/>
<path d="M728.6 71.6C729.1 72.1 729.7 72.3 730.4 72.3C731 72.3 731.7 72.1 732.2 71.6L748.7 55.1C749.7 54.1 749.7 52.5 748.7 51.5C747.7 50.5 746.1 50.5 745.1 51.5L728.6 68C727.6 69.1 727.6 70.7 728.6 71.6Z" fill="black"/>
<path d="M691.4 50.5C691.6 50.6 691.8 50.6 692.1 50.6C693.2 50.6 694.2 49.9 694.5 48.7L700.5 26.2C700.8 24.9 700.1 23.5 698.7 23.1C697.3 22.7 696 23.5 695.6 24.9L689.6 47.4C689.2 48.7 690 50.1 691.4 50.5Z" fill="black"/>
<path d="M645.5 48.9999C645.8 50.0999 646.8 50.8999 647.9 50.8999C648.1 50.8999 648.3 50.8999 648.6 50.7999C649.9 50.3999 650.7 49.0999 650.4 47.6999L644.4 25.1999C644.1 23.8999 642.7 23.0999 641.3 23.3999C640 23.7999 639.2 25.0999 639.5 26.4999L645.5 48.9999Z" fill="black"/>
<path d="M608.1 72.3998C608.6 72.8998 609.2 73.0998 609.9 73.0998C610.5 73.0998 611.2 72.8998 611.7 72.3998C612.7 71.3998 612.7 69.7998 611.7 68.7998L595.2 52.2998C594.2 51.2998 592.6 51.2998 591.6 52.2998C590.6 53.2998 590.6 54.8998 591.6 55.8998L608.1 72.3998Z" fill="black"/>
<path d="M566.2 100.6C564.9 100.2 563.5 101 563.1 102.4C562.7 103.7 563.5 105.1 564.9 105.5L587.4 111.5C587.6 111.6 587.8 111.6 588.1 111.6C589.2 111.6 590.2 110.9 590.5 109.7C590.9 108.4 590.1 107 588.7 106.6L566.2 100.6Z" fill="black"/>
<path d="M741.4 87.7998C741.9 88.5998 742.7 89.0998 743.6 89.0998C744 89.0998 744.5 88.9998 744.9 88.7998L782 67.3998C783.2 66.6998 783.6 65.1998 782.9 63.9998C782.2 62.7998 780.7 62.3998 779.5 63.0998L742.3 84.2998C741.1 84.9998 740.7 86.5998 741.4 87.7998Z" fill="black"/>
<path d="M710.5 58.0998C710.9 58.2998 711.3 58.3998 711.8 58.3998C712.7 58.3998 713.5 57.8998 714 57.0998L735.4 19.9998C736.1 18.7998 735.7 17.2998 734.5 16.5998C733.3 15.8998 731.8 16.2998 731.1 17.4998L709.7 54.5998C708.9 55.8998 709.3 57.3998 710.5 58.0998Z" fill="black"/>
<path d="M668.9 47.8C670.3 47.8 671.4 46.7 671.4 45.3V2.5C671.4 1.1 670.3 0 668.9 0C667.5 0 666.4 1.1 666.4 2.5V45.3C666.4 46.7 667.5 47.8 668.9 47.8Z" fill="black"/>
<path d="M624.3 58.7996C624.8 59.5996 625.6 60.0996 626.5 60.0996C626.9 60.0996 627.3 59.9996 627.8 59.7996C629 59.0996 629.4 57.5996 628.7 56.3996L607.3 19.2996C606.6 18.0996 605.1 17.6996 603.9 18.3996C602.7 19.0996 602.3 20.5996 603 21.7996L624.3 58.7996Z" fill="black"/>
<path d="M557.6 70.0999L594.7 91.4999C595.1 91.6999 595.5 91.7999 596 91.7999C596.9 91.7999 597.7 91.2999 598.2 90.4999C598.9 89.2999 598.5 87.7999 597.3 87.0999L560.2 65.6999C559 64.9999 557.5 65.3999 556.8 66.5999C556 67.8999 556.4 69.3999 557.6 70.0999Z" fill="black"/>
<path d="M542.5 134.7H585.3C586.7 134.7 587.8 133.6 587.8 132.2C587.8 130.8 586.7 129.7 585.3 129.7H542.5C541.1 129.7 540 130.8 540 132.2C540 133.6 541.1 134.7 542.5 134.7Z" fill="black"/>
<path d="M267.468 202.284C274.568 200.484 327.768 213.584 327.768 213.584C438.368 229.384 441.468 159.784 441.468 159.784C441.468 159.784 443.668 142.584 431.368 137.784C419.068 132.984 412.368 141.584 412.368 141.584C412.368 141.584 383.268 205.884 256.368 158.484C133.968 112.784 80.3684 145.884 80.3684 145.884C80.3684 145.884 58.3684 164.384 71.1684 175.484C83.9684 186.484 109.768 171.284 109.768 171.284C109.768 171.284 127.668 162.284 159.268 165.184C208.668 169.784 228.668 188.484 228.668 188.484C211.268 218.584 210.168 222.184 189.268 266.684C189.268 266.684 150.068 357.384 116.668 419.384C85.6684 476.984 49.6684 466.084 30.6684 448.484C11.6684 430.884 2.46842 448.884 2.46842 448.884C-11.7316 466.684 39.9684 494.684 39.9684 494.684C111.768 521.584 164.668 400.784 164.668 400.784C164.668 400.784 208.168 302.884 229.468 263.284C251.468 222.484 267.468 202.284 267.468 202.284Z" fill="black"/>
<path d="M676.068 241.084C679.968 232.084 684.068 223.184 688.068 214.284C690.268 209.384 692.368 204.484 694.568 199.684C694.568 199.684 685.868 219.084 675.268 242.584C675.568 242.184 675.868 241.684 676.068 241.084Z" fill="black"/>
<path d="M656.968 283.484C657.168 283.084 657.268 282.684 657.468 282.184C647.068 305.484 638.368 324.784 638.168 325.284C640.568 319.984 642.968 314.684 645.268 309.384C649.268 300.784 653.168 292.184 656.968 283.484Z" fill="black"/>
<path d="M1125.37 421.084C1123.97 419.984 1122.37 419.084 1121.17 417.884C1115.97 412.984 1104.97 413.584 1100.47 420.884C1099.77 421.984 1098.97 423.085 1098.17 424.185C1095.37 428.185 1092.57 432.185 1089.67 436.185C1085.67 441.785 1080.87 446.585 1075.57 450.984C1070.97 454.784 1065.87 457.884 1060.17 459.584C1058.97 459.984 1057.67 460.585 1056.07 459.685C1056.37 458.785 1056.57 457.784 1056.87 456.884C1061.27 447.284 1065.67 437.784 1070.07 428.284C1080.87 405.184 1091.57 382.085 1102.37 358.984C1105.87 351.484 1109.57 344.084 1113.17 336.584C1115.77 331.084 1118.67 325.785 1120.77 319.984C1122.37 315.684 1123.17 311.384 1122.77 306.884C1122.17 298.284 1116.67 293.784 1109.07 291.384C1108.17 291.084 1107.07 291.384 1106.07 291.484C1101.57 292.285 1097.77 294.484 1094.17 297.184C1093.37 297.784 1092.67 298.684 1092.17 299.484C1088.87 305.284 1085.67 311.085 1082.47 316.984C1080.07 321.384 1078.67 326.284 1076.57 330.884C1073.27 338.184 1070.37 345.584 1066.57 352.684C1061.57 362.084 1057.07 371.785 1052.57 381.484C1043.37 400.784 1034.27 419.984 1025.27 439.384C1022.27 445.884 1017.97 451.184 1012.77 455.884C1009.37 458.984 1005.47 460.984 1001.07 461.984C995.768 463.185 990.768 462.584 986.268 459.284C983.968 457.584 982.668 455.484 982.468 452.584C982.468 451.584 982.468 450.484 982.568 449.484C982.968 444.984 984.568 440.784 986.368 436.784C991.468 425.884 996.868 415.185 1001.97 404.384C1012.07 383.084 1022.07 361.785 1032.17 340.484C1035.97 332.585 1039.17 324.484 1041.97 316.184C1043.27 312.484 1043.37 308.884 1042.27 305.384C1040.37 298.984 1035.07 292.584 1025.77 293.384C1022.97 293.584 1020.67 294.584 1018.67 296.584C1015.47 299.884 1012.87 303.684 1010.77 307.784C1007.17 314.884 1003.57 322.084 1000.17 329.284C990.268 350.384 980.568 371.484 970.668 392.584C967.368 399.584 964.068 406.484 960.568 413.384C957.168 420.284 953.868 427.284 951.368 434.584C949.668 439.484 947.268 444.085 944.968 448.685C942.168 454.484 937.168 457.885 931.368 460.185C926.968 461.885 922.368 461.484 917.768 460.984C913.268 460.585 910.568 457.984 909.068 453.884C909.668 452.584 910.068 451.284 910.668 450.084C913.668 443.484 916.768 436.884 919.868 430.284C930.868 406.784 941.768 383.284 952.768 359.784C955.668 353.584 958.368 347.384 961.468 341.284C964.568 335.184 967.768 329.284 970.368 322.884C972.068 318.584 973.268 314.184 973.168 309.484C973.068 303.285 970.268 298.384 966.268 294.084C964.168 291.784 961.068 290.684 958.168 289.584C955.968 288.784 953.868 288.684 951.568 289.184C948.568 289.784 945.968 291.084 943.768 293.284C942.468 294.584 941.468 296.384 939.568 296.984C936.468 295.585 933.568 294.184 930.568 292.884C921.168 288.584 911.268 287.584 901.068 288.884C888.768 290.484 878.068 295.384 868.768 303.484C864.168 307.484 860.068 311.884 857.168 317.284C855.768 319.884 854.368 322.584 852.968 325.184C842.368 332.184 829.368 333.384 821.668 333.284C821.868 328.484 821.868 323.684 821.468 320.384C821.068 319.084 819.568 313.984 819.068 312.784C816.068 304.984 810.568 299.184 803.668 294.984C793.968 289.184 783.368 286.684 772.068 287.884C765.468 288.584 758.868 290.484 752.968 293.384C746.368 296.584 739.868 300.284 734.268 305.284C732.968 306.484 731.668 307.684 730.168 308.684C722.368 314.284 717.268 322.184 713.068 330.584C706.468 343.784 700.168 357.284 693.768 370.684C685.068 388.684 676.468 406.784 667.868 424.784C665.368 430.084 662.668 435.484 660.568 440.984C659.068 444.784 657.268 448.184 654.368 451.084C650.268 454.984 646.168 458.684 640.868 461.084C636.068 463.184 631.368 463.084 626.668 461.084C625.468 460.584 624.768 459.784 624.268 458.584C623.168 455.684 622.268 452.685 622.368 449.484C622.568 444.784 623.668 440.385 625.668 436.185C628.768 429.685 632.068 423.185 635.268 416.685C641.368 404.185 647.368 391.584 653.468 379.084C657.468 370.784 661.668 362.584 665.368 354.284C666.768 351.184 668.068 348.184 669.368 345.084C692.468 333.484 715.068 311.284 736.568 284.784C754.668 262.484 761.168 240.784 764.768 224.384C767.268 217.284 768.068 209.884 767.568 202.084C767.568 201.184 767.268 200.284 767.068 199.484C765.668 195.084 763.668 191.184 761.168 187.584C760.568 186.684 759.968 185.884 759.368 185.184C757.968 183.484 756.468 181.884 754.768 180.384C751.368 177.484 747.568 175.184 743.168 174.084C736.868 172.484 730.568 171.984 724.368 174.184C723.268 174.584 722.068 174.884 720.968 175.084C716.168 176.284 711.868 178.684 707.868 181.484C704.068 184.184 701.068 187.584 699.168 191.984C698.468 193.484 697.468 194.784 696.668 196.184C695.968 197.484 695.068 198.684 694.468 199.984C692.268 204.884 690.168 209.784 687.968 214.584C683.968 223.484 679.868 232.384 675.968 241.384C675.768 241.984 675.468 242.484 675.168 242.884C669.368 255.684 663.168 269.684 657.368 282.484C657.168 282.884 657.068 283.384 656.868 283.784C652.968 292.484 649.068 301.084 645.168 309.684C642.768 314.984 640.368 320.284 638.068 325.584C627.768 332.684 616.968 334.785 610.768 335.484C611.568 329.785 611.868 324.484 610.968 321.684C610.768 321.184 606.868 312.284 604.768 308.684C602.368 304.384 588.268 294.084 586.068 293.084C580.268 290.284 574.068 289.084 567.668 288.284C558.668 287.184 550.268 289.084 542.068 292.584C537.468 294.584 533.068 297.184 528.768 299.784C525.968 301.484 523.268 303.384 520.968 305.584C516.868 309.384 512.868 313.384 509.068 317.584C506.168 320.784 503.868 324.384 502.068 328.384C498.968 335.284 495.768 342.085 492.568 348.984C482.668 370.484 472.768 392.084 462.968 413.584C459.468 421.184 454.968 428.184 449.968 434.784C444.468 442.084 437.968 448.284 430.868 453.884C424.568 458.884 417.568 462.184 409.668 463.584C403.568 464.684 397.468 465.684 391.168 463.884C383.468 461.584 377.468 457.685 374.868 449.685C374.468 448.285 374.068 446.884 373.668 445.384C372.768 442.784 372.968 440.185 373.568 437.484C374.468 433.384 376.168 429.584 377.968 425.884C385.368 409.884 392.868 393.984 400.268 377.884C403.968 369.984 407.968 362.184 410.868 353.884C411.268 352.684 412.068 351.484 412.768 350.384C415.668 345.884 418.568 341.384 421.468 336.984C423.568 333.684 426.168 330.884 429.068 328.284C431.468 326.184 433.968 324.585 436.968 323.484C440.368 322.184 443.668 322.584 446.868 324.084C448.268 324.684 448.868 325.684 448.868 327.184C448.968 330.184 448.168 333.084 447.068 335.784C445.468 339.784 443.868 343.784 442.268 347.784C439.468 354.984 439.868 361.984 443.668 368.784C445.268 371.684 447.368 374.384 450.568 375.384C455.768 377.084 461.168 377.384 465.868 373.684C468.468 371.684 470.668 369.284 473.068 367.084C475.768 364.584 477.568 361.584 478.968 358.284C481.268 352.984 482.968 347.484 484.468 341.884C484.768 340.584 485.168 339.285 485.168 337.984C485.168 333.684 485.168 329.384 485.068 325.084C484.968 322.584 484.768 319.984 484.168 317.584C482.468 311.584 479.868 305.884 475.768 301.084C470.968 295.284 464.768 291.684 457.468 290.084C451.068 288.684 444.568 288.084 438.068 288.084C426.868 288.084 416.368 290.884 407.368 297.984C404.368 300.384 401.368 302.884 398.568 305.484C396.968 306.984 395.668 308.884 394.568 310.784C392.768 313.884 391.268 317.084 389.568 320.184C384.168 330.084 379.268 340.184 374.868 350.584C373.468 353.984 371.868 357.384 370.268 360.684C365.368 370.984 360.368 381.184 355.368 391.484C350.068 402.284 345.268 413.284 339.568 423.784C337.168 428.184 334.868 432.684 331.968 436.784C327.368 443.284 322.268 449.584 317.268 455.784C315.568 457.784 313.468 459.484 311.368 461.185C307.568 464.285 303.268 464.585 298.768 463.484C293.768 462.384 290.968 458.284 291.768 453.284C292.268 450.484 293.068 447.785 293.868 445.185C295.268 441.085 297.068 437.184 298.868 433.284C307.268 414.784 315.668 396.284 323.968 377.784C331.568 360.884 338.868 343.884 346.468 326.984C349.068 321.384 350.668 315.584 351.568 309.584C351.968 307.184 351.868 304.484 351.468 302.084C350.668 297.784 348.268 294.484 343.668 293.284C342.268 292.884 340.868 292.284 339.368 292.084C332.268 290.784 325.868 292.284 320.468 297.284C320.268 297.484 319.968 297.484 319.668 297.584C319.568 297.584 319.368 297.585 319.268 297.484C318.868 297.285 318.468 297.084 318.068 296.884C312.968 293.584 307.568 291.085 301.368 289.984C290.868 288.184 280.768 288.984 270.868 292.784C266.568 294.484 262.368 296.184 258.168 297.984C256.568 298.684 254.868 299.484 253.468 300.384C244.168 306.384 237.268 314.484 233.168 324.984C230.868 330.785 228.468 336.484 225.968 342.184C221.368 352.484 216.868 362.785 212.068 372.984C207.268 383.484 202.168 393.884 197.268 404.284C192.868 413.784 187.668 422.984 183.568 432.685C180.868 439.085 178.368 445.584 176.968 452.384C175.368 460.284 176.768 467.384 181.168 473.984C184.268 478.685 188.268 482.684 192.068 486.784C194.868 489.784 198.168 491.884 201.968 493.384C204.468 494.384 206.968 495.185 209.568 495.984C216.368 498.085 223.368 498.185 230.268 497.185C241.968 495.585 252.468 491.085 261.668 483.484C262.368 482.984 263.068 482.484 263.668 482.084C265.468 482.684 266.168 483.984 267.068 485.084C270.168 488.884 274.068 491.384 278.468 493.284C280.268 494.084 282.068 494.684 283.868 495.284C300.568 500.484 316.368 498.484 331.068 488.884C336.768 485.184 342.168 481.085 347.768 477.185C347.768 477.185 347.968 477.184 348.068 477.284C348.968 478.084 349.768 478.885 350.668 479.685C359.468 488.185 369.568 494.484 381.868 496.584C383.568 496.884 385.368 497.084 387.168 497.284C392.468 497.784 397.768 497.684 403.168 497.284C415.368 496.584 427.168 494.085 438.568 489.685C442.468 488.185 446.168 486.284 449.568 483.984C451.568 482.685 453.568 481.484 455.668 480.584C457.668 481.384 458.868 482.984 460.168 484.284C463.668 487.784 467.368 490.884 471.868 493.084C479.668 496.884 487.868 498.285 496.468 497.185C497.968 496.984 499.468 496.984 500.868 496.884C507.368 496.784 513.468 495.285 519.168 492.185C519.868 491.785 520.468 491.484 521.168 491.185C521.568 490.984 521.968 490.784 522.368 490.784C522.368 490.784 548.468 472.784 560.568 453.284C560.768 452.984 560.968 452.584 561.168 452.284C561.368 451.984 561.568 451.584 561.768 451.284C564.868 446.084 568.168 440.884 570.968 435.484C577.568 422.884 584.068 410.185 589.068 396.884C591.568 390.384 594.368 383.984 597.068 377.584C598.468 374.184 599.868 370.884 601.268 367.484C610.068 366.484 616.668 364.184 621.368 361.984C618.568 368.285 615.868 374.584 612.668 380.684C609.668 386.484 607.068 392.484 604.468 398.384C602.668 402.685 600.468 406.884 598.268 410.984C598.268 410.984 574.068 457.785 593.468 480.685C594.468 481.685 595.468 482.685 596.468 483.685C596.568 483.785 596.668 483.884 596.768 483.984C597.368 484.585 597.968 485.284 598.568 485.884C602.268 490.184 607.168 492.685 612.368 494.484C619.368 496.984 626.668 496.684 633.868 496.084C636.968 495.784 640.068 495.284 643.068 494.584C652.068 492.384 660.368 488.484 667.968 483.185C668.668 482.685 669.468 482.384 670.368 481.884C671.368 482.684 672.368 483.385 673.168 484.185C677.768 488.585 683.068 491.784 688.968 493.984C699.968 498.085 711.168 498.584 722.468 494.784C723.568 494.384 724.668 493.984 725.868 493.784C729.768 493.284 733.168 491.385 736.568 489.685C737.968 488.984 739.268 487.884 741.168 487.884C741.168 487.884 761.968 470.884 768.068 457.784C768.168 457.384 768.268 457.085 768.468 456.685C768.668 456.285 768.768 455.984 768.968 455.584C772.968 446.984 777.068 438.285 781.168 429.685C785.368 420.885 789.668 412.084 793.868 403.284C798.368 394.084 802.768 384.884 807.368 375.784C808.568 373.384 810.868 369.184 813.168 364.884C824.668 363.684 831.768 362.784 835.268 362.384C835.268 362.484 835.168 362.584 835.068 362.784C825.968 382.184 817.368 401.984 807.468 420.984C805.568 424.685 804.168 428.584 802.668 432.384C802.568 432.784 802.368 433.085 802.268 433.484C802.268 433.784 798.068 471.684 814.968 486.584C819.468 489.884 823.968 492.984 829.268 494.984C835.568 497.284 841.768 499.684 849.168 499.584C848.968 500.884 848.968 501.684 848.768 502.284C848.068 504.084 847.168 505.784 846.468 507.584C843.768 514.184 840.268 520.384 836.268 526.284C831.268 533.684 825.768 540.584 819.868 547.284C817.368 550.184 814.568 552.884 811.568 555.284C809.768 556.784 807.868 558.284 806.068 559.784C800.868 563.984 795.268 567.684 789.268 570.584C781.368 574.484 772.968 576.784 764.068 577.284C759.768 577.484 756.768 576.385 754.868 572.185C752.468 567.085 748.368 565.185 742.868 565.984C737.168 566.884 732.668 569.684 729.668 574.784C728.168 577.384 727.368 580.284 726.668 583.084C725.368 588.584 726.168 593.685 729.068 598.484C733.868 606.384 741.068 611.085 750.268 612.484C756.468 613.484 762.668 613.484 768.868 612.384C776.268 611.084 783.668 609.184 790.868 607.084C793.668 606.284 796.568 605.484 799.368 604.384C811.568 599.884 822.568 593.185 832.268 584.484C833.568 583.284 834.968 582.185 836.468 581.185C841.268 578.085 845.268 574.084 848.668 569.584C852.568 564.384 856.268 558.884 859.468 553.284C865.168 543.584 870.768 533.784 875.968 523.884C880.968 514.284 886.768 505.185 891.068 495.185C891.468 494.185 892.368 493.284 893.068 492.284C893.868 492.484 894.368 492.584 894.968 492.784C905.668 496.784 916.368 498.185 927.468 494.484C935.068 491.984 942.668 489.484 949.768 485.784C952.868 484.184 955.868 482.184 959.068 480.284C959.768 480.884 960.468 481.384 961.068 481.984C967.868 488.185 975.568 492.784 984.268 495.484C988.368 496.784 992.468 498.084 996.868 498.084C997.668 498.084 998.368 498.585 999.468 498.984C998.068 502.185 996.668 505.185 995.468 508.185C993.068 513.984 989.868 519.284 986.468 524.484C981.368 532.384 975.568 539.584 969.268 546.584C967.468 548.584 965.668 550.585 963.568 552.185C958.168 556.685 952.668 561.184 946.568 565.084C936.868 571.284 926.468 575.084 914.968 575.784C913.668 575.884 912.268 575.984 910.968 575.884C908.568 575.684 906.768 574.584 905.668 572.384C905.368 571.684 905.068 571.084 904.668 570.384C902.068 565.884 897.868 563.684 892.768 564.584C886.968 565.584 882.268 568.484 879.368 573.884C877.668 577.084 876.668 580.484 876.068 583.984C875.368 588.085 876.068 592.085 878.068 595.685C882.868 604.385 890.268 609.785 900.168 611.185C907.268 612.185 914.368 612.185 921.368 610.685C923.868 610.185 926.368 609.784 928.768 609.084C935.668 607.184 942.568 605.484 949.268 603.185C961.468 598.984 972.268 592.184 981.868 583.584C983.268 582.284 984.768 580.984 986.368 579.984C991.368 576.784 995.368 572.585 998.768 567.984C1002.67 562.784 1006.27 557.285 1009.57 551.685C1015.17 542.285 1020.37 532.585 1025.67 522.984C1029.87 515.284 1034.07 507.684 1038.07 499.884C1039.07 497.884 1040.37 497.084 1042.47 497.084C1047.37 496.884 1052.27 496.585 1057.07 496.185C1065.97 495.385 1074.47 492.684 1082.87 489.884C1089.67 487.584 1095.77 483.884 1101.07 478.984C1105.07 475.284 1108.77 471.185 1112.37 466.984C1117.37 461.284 1121.17 454.785 1124.97 448.185C1128.17 442.585 1129.57 436.684 1129.37 430.284C1129.57 426.384 1128.27 423.384 1125.37 421.084ZM717.268 207.784C720.468 203.184 725.568 195.784 734.368 199.484C743.168 203.184 738.068 219.784 733.868 232.284C729.668 244.784 710.268 290.484 674.668 308.984C674.768 308.984 714.068 212.384 717.268 207.784ZM281.968 383.484C279.968 388.684 277.468 393.784 275.068 398.884C270.668 408.384 265.968 417.784 261.768 427.484C259.468 432.685 257.068 437.685 254.468 442.685C250.168 450.785 243.968 456.984 235.668 460.884C232.468 462.384 229.068 463.484 225.368 463.185C221.068 463.385 217.668 461.884 215.068 458.284C214.068 456.884 213.568 455.385 213.968 453.685C214.968 449.385 215.768 445.084 218.068 441.084C220.368 437.284 222.068 433.184 223.868 429.084C235.068 404.584 246.368 380.085 257.468 355.484C261.268 346.984 266.968 339.784 273.368 333.184C277.668 328.784 282.868 325.684 288.968 324.284C291.868 323.584 294.868 323.684 297.768 323.884C299.368 323.984 300.468 324.784 301.268 326.184C303.168 329.684 303.368 333.284 302.068 336.884C301.068 339.484 299.868 342.084 298.768 344.684C292.868 357.484 287.068 370.285 281.968 383.484ZM559.268 371.484C555.568 379.184 551.668 386.884 547.968 394.684C540.968 409.184 533.768 423.684 526.968 438.284C524.068 444.484 519.968 449.584 514.368 453.384C511.668 455.184 508.968 456.984 506.068 458.484C501.868 460.784 497.268 460.884 492.668 460.084C488.268 459.284 485.568 456.584 484.468 452.284C483.768 449.384 483.968 446.484 485.368 443.685C489.268 435.685 493.068 427.685 496.968 419.685C504.568 404.085 512.168 388.484 519.768 372.984C520.568 371.285 521.568 369.584 522.468 367.784C529.168 368.184 535.368 368.584 541.568 368.884C547.768 369.184 553.968 368.484 559.968 367.984C560.668 369.484 559.768 370.384 559.268 371.484ZM574.668 336.884C562.768 341.384 545.568 342.184 538.768 338.584C538.968 338.084 539.068 337.484 539.368 337.084C544.268 330.484 550.268 325.484 558.568 323.684C561.968 322.984 565.368 323.084 568.768 323.384C570.468 323.484 571.768 324.384 572.768 325.884C575.068 329.284 575.968 332.984 574.668 336.884ZM771.168 369.584C768.268 375.584 765.268 381.584 762.368 387.584C754.368 403.984 746.468 420.384 738.468 436.784C737.668 438.484 736.768 440.284 735.968 441.984C731.668 450.984 724.468 456.585 715.168 459.484C709.968 461.085 704.568 460.584 699.568 458.084C696.568 456.584 695.268 454.084 695.968 450.784C696.668 447.384 697.968 444.285 699.468 441.185C705.168 429.685 710.868 418.084 716.568 406.584C722.168 395.184 727.768 383.684 733.468 372.284C734.168 370.784 734.968 369.484 735.968 367.684C740.168 367.684 744.068 367.784 747.868 367.684C750.668 367.584 753.468 367.384 756.268 367.084C760.568 366.684 764.768 366.285 769.068 365.984C769.968 365.884 770.768 366.084 771.568 366.084C772.468 367.484 771.668 368.584 771.168 369.584ZM785.268 335.684C783.968 336.184 782.768 336.684 781.468 336.984C775.468 337.984 769.568 339.284 763.468 339.284C759.768 339.284 756.068 339.284 752.368 339.284C751.868 339.284 751.268 339.084 750.168 338.884C750.768 337.684 750.968 337.085 751.368 336.484C754.168 332.384 757.768 329.184 762.068 326.584C768.468 322.784 775.068 323.084 781.768 325.584C785.068 326.884 786.968 329.384 787.068 332.984C787.068 334.184 786.568 335.184 785.268 335.684ZM879.668 432.084C878.068 435.384 876.368 438.684 874.868 442.084C871.768 449.084 866.668 454.384 860.868 459.084C855.768 463.184 849.668 464.484 843.268 463.685C839.668 463.185 836.568 461.185 834.268 458.484C832.968 456.984 832.668 454.984 832.768 452.984C832.868 450.884 832.968 448.784 833.668 446.884C834.868 443.284 836.068 439.585 837.868 436.185C841.968 428.185 845.768 419.984 849.668 411.784C859.868 390.084 870.068 368.384 880.368 346.584C882.168 342.884 883.968 339.084 886.068 335.584C889.568 329.884 894.268 325.384 900.768 323.184C904.368 321.984 908.268 321.384 912.168 321.184C914.468 321.584 916.868 321.785 919.068 322.484C922.668 323.684 925.068 327.184 924.868 331.084C924.668 333.984 924.168 336.884 923.368 339.784C921.568 345.784 918.468 351.184 915.768 356.784C903.668 381.784 891.668 406.984 879.668 432.084Z" fill="black"/>
</svg>
